<svg width="169" height="227" viewBox="0 0 169 227" fill="none" xmlns="http://www.w3.org/2000/svg">
<path d="M43.6992 0.984375H125.066C125.688 0.984375 126.305 1.01562 126.922 1.07422C127.539 1.13672 128.148 1.22656 128.758 1.34766C129.367 1.46875 129.965 1.62109 130.559 1.80078C131.152 1.98047 131.734 2.19141 132.309 2.42969C132.883 2.66406 133.441 2.92969 133.988 3.22266C134.535 3.51563 135.066 3.83594 135.582 4.18359C136.098 4.52734 136.594 4.89844 137.07 5.29297C137.551 5.6875 138.012 6.10156 138.449 6.54297C138.887 6.98047 139.301 7.44141 139.695 7.92188C140.09 8.40234 140.457 8.90234 140.801 9.41797C141.145 9.93359 141.465 10.4688 141.758 11.0156C142.051 11.5625 142.313 12.125 142.551 12.6992C142.789 13.2734 142.996 13.8594 143.176 14.4531C143.355 15.0469 143.508 15.6523 143.629 16.2617C143.75 16.8711 143.84 17.4844 143.902 18.1016C143.961 18.7227 143.992 19.3398 143.992 19.9609V88.2227H24.7734V19.9609C24.7734 19.3398 24.8047 18.7227 24.8633 18.1016C24.9258 17.4844 25.0156 16.8711 25.1367 16.2617C25.2578 15.6523 25.4102 15.0469 25.5898 14.4531C25.7695 13.8594 25.9766 13.2734 26.2148 12.6992C26.4492 12.125 26.7148 11.5625 27.0078 11.0156C27.3008 10.4688 27.6172 9.93359 27.9609 9.41797C28.3086 8.90234 28.6758 8.40234 29.0703 7.92188C29.4609 7.44141 29.8789 6.98047 30.3164 6.54297C30.7539 6.10156 31.2148 5.6875 31.6914 5.29297C32.1719 4.89844 32.668 4.52734 33.1836 4.18359C33.6992 3.83594 34.2305 3.51563 34.7773 3.22266C35.3242 2.92969 35.8828 2.66406 36.457 2.42969C37.0273 2.19141 37.6133 1.98047 38.2031 1.80078C38.7969 1.62109 39.3984 1.46875 40.0078 1.34766C40.6133 1.22656 41.2266 1.13672 41.8438 1.07422C42.4609 1.01562 43.0781 0.984375 43.6992 0.984375Z" fill="#CA4727"/>
<path d="M98.7969 217.992L165.602 101.957C172.012 90.8281 164 76.918 151.184 76.918H17.5781C4.76172 76.918 -3.24609 90.8281 3.16016 101.957L69.9648 217.992C76.375 229.125 92.3906 229.125 98.7969 217.992Z" fill="#1C2143"/>
<path d="M166.055 85C165.309 83.6875 164.402 82.4922 163.34 81.418C162.277 80.3477 161.09 79.4297 159.785 78.6758C158.477 77.918 157.094 77.3477 155.637 76.9609C154.18 76.5703 152.695 76.3828 151.184 76.3906H144.516V19.9609C144.512 19.3242 144.48 18.6875 144.418 18.0508C144.355 17.418 144.262 16.7852 144.137 16.1602C144.012 15.5352 143.855 14.9141 143.672 14.3047C143.484 13.6914 143.273 13.0938 143.027 12.5039C142.785 11.9141 142.512 11.3359 142.211 10.7734C141.91 10.2109 141.582 9.66406 141.23 9.13281C140.875 8.60156 140.496 8.08984 140.094 7.59766C139.688 7.10156 139.262 6.62891 138.812 6.17969C138.359 5.72656 137.891 5.29688 137.398 4.89453C136.906 4.48828 136.395 4.10938 135.867 3.75391C135.336 3.39844 134.789 3.07031 134.23 2.76953C133.668 2.46875 133.094 2.19531 132.504 1.94922C131.918 1.70703 131.316 1.48828 130.707 1.30469C130.102 1.11719 129.484 0.964844 128.859 0.839844C128.234 0.710938 127.605 0.617188 126.973 0.554688C126.34 0.492188 125.703 0.460938 125.066 0.460938H43.6992C43.0625 0.460938 42.4258 0.492188 41.793 0.554688C41.1602 0.617188 40.5312 0.710938 39.9062 0.839844C39.2812 0.964844 38.6641 1.11719 38.0547 1.30469C37.4453 1.48828 36.8477 1.70703 36.2617 1.94922C35.6719 2.19531 35.0977 2.46875 34.5352 2.76953C33.9727 3.07031 33.4297 3.39844 32.8984 3.75391C32.3711 4.10938 31.8594 4.48828 31.3672 4.89453C30.875 5.29688 30.4023 5.72656 29.9531 6.17969C29.5039 6.62891 29.0742 7.10156 28.6719 7.59766C28.2695 8.08984 27.8906 8.60156 27.5352 9.13281C27.1797 9.66406 26.8555 10.2109 26.5547 10.7734C26.2539 11.3359 25.9805 11.9141 25.7383 12.5039C25.4922 13.0938 25.2773 13.6914 25.0938 14.3047C24.9062 14.9141 24.7539 15.5352 24.6289 16.1602C24.5039 16.7852 24.4102 17.418 24.3477 18.0508C24.2852 18.6875 24.25 19.3242 24.25 19.9609V76.3906H17.5781C16.0703 76.3906 14.5898 76.5859 13.1328 76.9766C11.6797 77.3711 10.2969 77.9414 8.99219 78.6992C7.6875 79.4531 6.50391 80.3672 5.4375 81.4336C4.37109 82.5039 3.46094 83.6914 2.70703 85C1.95313 86.3086 1.38281 87.6914 0.992188 89.1523C0.601561 90.6133 0.40625 92.0977 0.40625 93.6094C0.40625 95.1211 0.601561 96.6055 0.992188 98.0664C1.38281 99.5273 1.95703 100.91 2.70703 102.219L69.5156 218.254C70.2656 219.566 71.1758 220.754 72.2422 221.82C73.3086 222.891 74.4922 223.801 75.7969 224.559C77.1016 225.312 78.4844 225.887 79.9375 226.277C81.3945 226.668 82.875 226.863 84.3828 226.863C85.8906 226.863 87.3711 226.668 88.8242 226.277C90.2812 225.887 91.6602 225.312 92.9648 224.559C94.2734 223.801 95.457 222.891 96.5234 221.82C97.5859 220.754 98.4961 219.566 99.25 218.254L166.055 102.219C166.816 100.914 167.395 99.5313 167.789 98.0703C168.184 96.6094 168.383 95.1211 168.383 93.6094C168.383 92.0977 168.184 90.6094 167.789 89.1484C167.395 87.6914 166.816 86.3086 166.055 85ZM25.2969 19.9609C25.2969 19.3594 25.3281 18.7539 25.3867 18.1562C25.4453 17.5547 25.5352 16.957 25.6523 16.3633C25.7695 15.7695 25.918 15.1875 26.0938 14.6094C26.2695 14.0312 26.4727 13.4609 26.7031 12.9023C26.9336 12.3437 27.1914 11.8008 27.4766 11.2656C27.7578 10.7344 28.0703 10.2148 28.4023 9.71484C28.7383 9.21094 29.0977 8.72656 29.4805 8.26172C29.8633 7.79297 30.2656 7.34766 30.6914 6.91797C31.1172 6.49219 31.5625 6.08594 32.0312 5.70312C32.4961 5.32031 32.9805 4.96094 33.4805 4.625C33.9805 4.28906 34.4961 3.97656 35.0273 3.69141C35.5586 3.40625 36.1016 3.14844 36.6602 2.91797C37.2148 2.6875 37.7812 2.48437 38.3594 2.30859C38.9336 2.12891 39.5195 1.98437 40.1094 1.86719C40.6992 1.74609 41.2969 1.65625 41.8945 1.59766C42.4961 1.53906 43.0977 1.50781 43.6992 1.50781H125.066C125.668 1.50781 126.27 1.53906 126.871 1.59766C127.469 1.65625 128.062 1.74609 128.656 1.86719C129.246 1.98437 129.828 2.12891 130.406 2.30859C130.98 2.48437 131.547 2.6875 132.105 2.91797C132.66 3.14844 133.207 3.40625 133.738 3.69141C134.27 3.97656 134.785 4.28906 135.285 4.625C135.785 4.96094 136.27 5.32031 136.734 5.70312C137.199 6.08594 137.648 6.49219 138.074 6.91797C138.5 7.34766 138.902 7.79297 139.285 8.26172C139.668 8.72656 140.027 9.21094 140.359 9.71484C140.695 10.2148 141.004 10.7344 141.289 11.2656C141.574 11.8008 141.832 12.3437 142.062 12.9023C142.293 13.4609 142.496 14.0312 142.672 14.6094C142.848 15.1875 142.992 15.7695 143.113 16.3633C143.23 16.957 143.32 17.5547 143.379 18.1562C143.438 18.7539 143.469 19.3594 143.469 19.9609V76.3906H25.2969V19.9609ZM165.148 101.695L98.3477 217.73C97.6367 218.961 96.7852 220.078 95.7852 221.082C94.7813 222.086 93.668 222.941 92.4453 223.652C91.2188 224.363 89.9219 224.898 88.5547 225.266C87.1875 225.633 85.7969 225.82 84.3828 225.82C82.9648 225.82 81.5742 225.633 80.207 225.266C78.8398 224.898 77.543 224.363 76.3203 223.652C75.0938 222.941 73.9805 222.086 72.9805 221.082C71.9805 220.078 71.125 218.961 70.418 217.73L3.61328 101.695C2.90625 100.465 2.37109 99.1641 2.00391 97.793C1.63672 96.4258 1.45312 95.0273 1.45312 93.6094C1.45312 92.1914 1.63672 90.7969 2.00391 89.4258C2.37109 88.0547 2.90625 86.7539 3.61328 85.5234C4.32031 84.2969 5.17578 83.1797 6.17578 82.1758C7.17578 81.1719 8.28906 80.3164 9.51562 79.6055C10.7422 78.8984 12.0391 78.3594 13.4062 77.9922C14.7734 77.625 16.1641 77.4414 17.5781 77.4414H151.188C152.602 77.4414 153.992 77.625 155.359 77.9922C156.727 78.3594 158.023 78.8945 159.25 79.6055C160.473 80.3164 161.586 81.1719 162.59 82.1758C163.59 83.1797 164.445 84.2969 165.152 85.5234C165.859 86.7539 166.395 88.0547 166.762 89.4258C167.129 90.7969 167.312 92.1914 167.312 93.6094C167.312 95.0273 167.129 96.4258 166.762 97.793C166.395 99.1641 165.859 100.465 165.152 101.695H165.148Z" fill="#1C2143"/>
<path d="M84.3828 213.418C83.707 213.43 83.0781 213.27 82.4922 212.93C81.9062 212.59 81.4531 212.125 81.125 211.531L14.3203 95.4961C13.9844 94.9141 13.8164 94.2852 13.8164 93.6094C13.8164 92.9375 13.9844 92.3086 14.3203 91.7227C14.6563 91.1406 15.1172 90.6797 15.6992 90.3438C16.2812 90.0078 16.9062 89.8398 17.5781 89.8398H151.188C151.859 89.8398 152.484 90.0078 153.066 90.3438C153.648 90.6797 154.109 91.1406 154.445 91.7227C154.781 92.3086 154.949 92.9375 154.949 93.6094C154.949 94.2852 154.781 94.9141 154.445 95.4961L87.6406 211.531C87.3125 212.125 86.8594 212.59 86.2734 212.93C85.6875 213.27 85.0586 213.43 84.3828 213.418Z" fill="#79B2DA"/>
<path d="M154.895 95.7578C155.277 95.0938 155.469 94.3789 155.469 93.6094C155.473 92.8438 155.281 92.125 154.898 91.4609C154.516 90.7969 153.992 90.2734 153.328 89.8906C152.668 89.5039 151.953 89.3125 151.188 89.3125H17.5781C16.8125 89.3125 16.0977 89.5039 15.4375 89.8906C14.7734 90.2734 14.25 90.7969 13.8672 91.4609C13.4844 92.125 13.293 92.8438 13.293 93.6094C13.293 94.3789 13.4844 95.0938 13.8672 95.7578L47.9297 154.922V154.926L80.6719 211.797C81.0547 212.461 81.5781 212.984 82.2383 213.367C82.9023 213.754 83.6172 213.945 84.3828 213.945C85.1484 213.945 85.8594 213.754 86.5234 213.367C87.1875 212.984 87.707 212.461 88.0898 211.797L120.832 154.926L120.836 154.922L154.895 95.7578ZM119.438 155.254H109.121L106.828 148.066H116.648L119.793 154.637L119.438 155.254ZM114.695 163.488H111.75L109.457 156.301H118.836L114.695 163.488ZM112.801 166.781L112.086 164.535H114.094L112.801 166.781ZM109.957 171.723H99.6367L98.4883 164.535H110.988L112.098 168.004L109.957 171.723ZM105.215 179.957H100.953L99.8047 172.77H109.352L105.215 179.957ZM101.879 185.758L101.117 181.004H104.613L101.879 185.758ZM100.477 188.191H84.9062V181.004H100.059L101.047 187.195L100.477 188.191ZM95.7344 196.426H84.9023V189.238H99.8711L95.7344 196.426ZM90.9922 204.66H84.9062V197.473H95.1289L90.9922 204.66ZM73.6328 197.473H83.8594V204.66H77.7734L73.6328 197.473ZM64.1523 181.004H67.6445L66.8867 185.758L64.1523 181.004ZM54.6719 164.535H56.6797L55.9648 166.781L54.6719 164.535ZM45.1914 148.066H50.9609L48.3398 153.539L45.1914 148.066ZM52.1211 148.066H61.9414L59.6445 155.254H49.3281L48.9727 154.637L52.1211 148.066ZM94.8047 148.066L95.9492 155.254H84.9062V148.066H94.8047ZM105.73 148.066L108.027 155.254H97.0078L95.8594 148.066H105.73ZM72.6484 156.301H83.8633V163.488H71.5039L72.6484 156.301ZM70.4453 163.488H58.1094L60.4062 156.301H71.5898L70.4453 163.488ZM83.8594 164.535V171.723H70.1875L71.3359 164.535H83.8594ZM83.8594 172.77V179.957H68.8711L70.0195 172.77H83.8594ZM84.9062 172.77H98.7461L99.8945 179.957H84.9062V172.77ZM84.9062 171.723V164.535H97.4297L98.582 171.723H84.9062ZM84.9062 163.488V156.301H96.1172L97.2656 163.488H84.9062ZM97.1758 156.301H108.359L110.656 163.488H98.3203L97.1758 156.301ZM83.8594 155.254H72.8164L73.9648 148.066H83.8594V155.254ZM71.7578 155.254H60.7383L63.0352 148.066H72.9062L71.7578 155.254ZM59.3086 156.301L57.0156 163.488H54.0664L49.9297 156.301H59.3086ZM57.7773 164.535H70.2773L69.1328 171.723H58.8086L56.668 168.004L57.7773 164.535ZM68.9609 172.77L67.8125 179.957H63.5508L59.4102 172.77H68.9609ZM68.707 181.004H83.8594V188.191H68.2891L67.7148 187.195L68.707 181.004ZM83.8594 189.238V196.426H73.0312L68.8945 189.238H83.8594ZM117.809 148.066H123.578L120.426 153.535L117.809 148.066ZM14.7734 91.9844C15.0547 91.4766 15.4453 91.0742 15.9492 90.7812C16.4531 90.4922 16.9961 90.3516 17.5781 90.3633H151.188C151.766 90.3594 152.305 90.5078 152.805 90.7969C153.309 91.0859 153.703 91.4844 153.992 91.9844C154.281 92.4883 154.426 93.0312 154.426 93.6094C154.426 94.1914 154.281 94.7305 153.992 95.2344L124.18 147.02H44.5859L14.7734 95.2344C14.4727 94.7344 14.3242 94.1914 14.3242 93.6094C14.3242 93.0273 14.4727 92.4844 14.7734 91.9844ZM81.5781 211.27L78.375 205.711H83.8594V212.855C83.375 212.789 82.9336 212.613 82.5312 212.336C82.1289 212.055 81.8125 211.703 81.5781 211.27ZM87.1875 211.27C86.9531 211.703 86.6367 212.055 86.2344 212.336C85.832 212.613 85.3906 212.789 84.9062 212.855V205.711H90.3906L87.1875 211.27Z" fill="#1C2143"/>
<path d="M84.6172 217.652C84.2812 216.437 83.7891 215.281 83.1523 214.191C82.5156 213.102 81.75 212.109 80.8555 211.215C79.9648 210.32 78.9727 209.555 77.8789 208.918C76.7891 208.281 75.6367 207.793 74.418 207.453C75.6367 207.113 76.7891 206.625 77.8789 205.988C78.9727 205.352 79.9648 204.586 80.8555 203.691C81.75 202.801 82.5156 201.809 83.1523 200.715C83.7891 199.625 84.2773 198.473 84.6172 197.254C84.957 198.473 85.4492 199.625 86.0859 200.715C86.7227 201.809 87.4883 202.801 88.3828 203.691C89.2734 204.586 90.2656 205.352 91.3594 205.988C92.4492 206.625 93.6016 207.113 94.8203 207.453C93.6016 207.793 92.4492 208.281 91.3594 208.918C90.2656 209.555 89.2734 210.32 88.3789 211.215C87.4883 212.109 86.7227 213.102 86.0859 214.191C85.4453 215.281 84.957 216.437 84.6172 217.652Z" fill="#F2E9DF"/>
<path d="M98.7188 206.926C97.8281 206.926 96.9453 206.836 96.0703 206.664C95.1953 206.488 94.3477 206.23 93.5273 205.891C92.7031 205.547 91.9219 205.129 91.1797 204.637C90.4414 204.141 89.7539 203.578 89.125 202.949C88.4961 202.32 87.9336 201.633 87.4375 200.895C86.9414 200.152 86.5234 199.371 86.1836 198.551C85.8437 197.727 85.5859 196.879 85.4102 196.004C85.2344 195.133 85.1484 194.25 85.1445 193.359C85.1445 193.215 85.0937 193.09 84.9922 192.984C84.8906 192.883 84.7656 192.832 84.6172 192.832C84.4727 192.832 84.3477 192.883 84.2461 192.984C84.1445 193.09 84.0938 193.215 84.0938 193.359C84.0898 194.25 84.0039 195.133 83.8281 196.004C83.6523 196.879 83.3945 197.727 83.0547 198.551C82.7148 199.371 82.2969 200.152 81.8008 200.895C81.3047 201.633 80.7422 202.32 80.1133 202.949C79.4805 203.578 78.7969 204.141 78.0547 204.637C77.3164 205.129 76.5352 205.547 75.7109 205.891C74.8906 206.23 74.0391 206.488 73.168 206.664C72.293 206.836 71.4102 206.926 70.5195 206.926C70.375 206.926 70.25 206.977 70.1484 207.082C70.0469 207.184 69.9922 207.309 69.9922 207.453C69.9922 207.598 70.0469 207.723 70.1484 207.824C70.25 207.93 70.375 207.98 70.5195 207.98C71.4102 207.98 72.293 208.07 73.168 208.242C74.043 208.418 74.8906 208.676 75.7109 209.016C76.5352 209.359 77.3164 209.777 78.0586 210.27C78.7969 210.766 79.4844 211.328 80.1133 211.957C80.7422 212.59 81.3047 213.273 81.8008 214.016C82.2969 214.754 82.7148 215.535 83.0547 216.359C83.3984 217.184 83.6562 218.031 83.8281 218.902C84.0039 219.777 84.0898 220.66 84.0938 221.551C84.0938 221.695 84.1445 221.82 84.2461 221.922C84.3477 222.027 84.4727 222.078 84.6172 222.078C84.7656 222.078 84.8906 222.027 84.9922 221.922C85.0937 221.82 85.1445 221.695 85.1445 221.551C85.1484 220.66 85.2344 219.777 85.4102 218.902C85.582 218.031 85.8398 217.184 86.1836 216.359C86.5234 215.535 86.9414 214.754 87.4375 214.016C87.9336 213.273 88.4961 212.59 89.125 211.957C89.7539 211.328 90.4414 210.766 91.1797 210.27C91.9219 209.777 92.7031 209.359 93.5273 209.016C94.3477 208.676 95.1953 208.418 96.0703 208.242C96.9453 208.07 97.8242 207.98 98.7188 207.98C98.8633 207.98 98.9883 207.93 99.0898 207.824C99.1914 207.723 99.2422 207.598 99.2422 207.453C99.2422 207.309 99.1914 207.184 99.0898 207.082C98.9883 206.977 98.8633 206.926 98.7188 206.926ZM84.6172 217.652C84.2812 216.437 83.7891 215.281 83.1523 214.191C82.5156 213.102 81.75 212.109 80.8555 211.215C79.9648 210.32 78.9727 209.555 77.8789 208.918C76.7891 208.281 75.6367 207.793 74.418 207.453C75.6367 207.113 76.7891 206.625 77.8789 205.988C78.9727 205.352 79.9648 204.586 80.8555 203.691C81.75 202.801 82.5156 201.809 83.1523 200.715C83.7891 199.625 84.2773 198.473 84.6172 197.254C84.957 198.473 85.4492 199.625 86.0859 200.715C86.7227 201.809 87.4883 202.801 88.3828 203.691C89.2734 204.586 90.2656 205.352 91.3594 205.988C92.4492 206.625 93.6016 207.113 94.8203 207.453C93.6016 207.793 92.4492 208.281 91.3594 208.918C90.2656 209.555 89.2734 210.32 88.3789 211.215C87.4883 212.109 86.7227 213.102 86.0859 214.191C85.4453 215.281 84.957 216.437 84.6172 217.652Z" fill="#3F120F"/>
<path d="M35.8594 113.848C35.5586 112.836 35.1328 111.875 34.5898 110.965C34.043 110.059 33.3984 109.23 32.6445 108.484C31.8945 107.734 31.0625 107.09 30.1484 106.551C29.2344 106.008 28.2695 105.586 27.25 105.285C28.2695 104.984 29.2383 104.563 30.1484 104.02C31.0625 103.477 31.8945 102.832 32.6445 102.086C33.3984 101.336 34.0469 100.508 34.5898 99.6016C35.1328 98.6914 35.5586 97.7305 35.8594 96.7188C36.1641 97.7305 36.5898 98.6914 37.1328 99.6016C37.6797 100.508 38.3281 101.336 39.0781 102.086C39.832 102.832 40.6641 103.477 41.5742 104.02C42.4883 104.563 43.4531 104.984 44.4727 105.285C43.457 105.586 42.4883 106.008 41.5781 106.551C40.6641 107.094 39.832 107.738 39.0781 108.484C38.3281 109.23 37.6797 110.059 37.1328 110.965C36.5898 111.875 36.1641 112.836 35.8594 113.848Z" fill="#F2E9DF"/>
<path d="M48.0898 104.766C47.3203 104.766 46.5625 104.688 45.8086 104.539C45.0547 104.391 44.3203 104.168 43.6133 103.875C42.9023 103.582 42.2266 103.223 41.5898 102.797C40.9492 102.375 40.3594 101.891 39.8164 101.352C39.2734 100.809 38.7891 100.223 38.3594 99.5859C37.9336 98.9531 37.5742 98.2812 37.2773 97.5742C36.9844 96.8711 36.7617 96.1406 36.6094 95.3906C36.4609 94.6406 36.3828 93.8867 36.3828 93.1211C36.3828 92.9766 36.332 92.8555 36.2305 92.7539C36.1289 92.6523 36.0039 92.6016 35.8594 92.6016C35.7148 92.6016 35.5937 92.6523 35.4922 92.7539C35.3906 92.8555 35.3398 92.9766 35.3398 93.1211C35.3359 93.8867 35.2617 94.6406 35.1133 95.3906C34.9609 96.1406 34.7383 96.8672 34.4453 97.5742C34.1484 98.2812 33.7891 98.9531 33.3633 99.5859C32.9375 100.223 32.4492 100.809 31.9062 101.352C31.3633 101.891 30.7734 102.375 30.1367 102.797C29.4961 103.223 28.8203 103.582 28.1133 103.875C27.4023 104.168 26.6719 104.391 25.918 104.539C25.1641 104.688 24.4023 104.766 23.6367 104.766C23.4922 104.766 23.3672 104.816 23.2656 104.918C23.1641 105.02 23.1133 105.141 23.1133 105.285C23.1133 105.43 23.1641 105.551 23.2656 105.652C23.3672 105.754 23.4922 105.805 23.6367 105.805C24.4023 105.805 25.1641 105.883 25.918 106.031C26.6719 106.18 27.4023 106.402 28.1133 106.695C28.8203 106.988 29.4961 107.348 30.1367 107.773C30.7734 108.195 31.3633 108.68 31.9062 109.219C32.4492 109.762 32.9375 110.348 33.3633 110.984C33.7891 111.617 34.1484 112.289 34.4453 112.996C34.7383 113.699 34.9609 114.43 35.1133 115.18C35.2617 115.926 35.3359 116.684 35.3398 117.449C35.3398 117.594 35.3906 117.715 35.4922 117.816C35.5937 117.918 35.7148 117.969 35.8594 117.969C36.0039 117.969 36.1289 117.918 36.2305 117.816C36.332 117.715 36.3828 117.594 36.3828 117.449C36.3828 116.684 36.4609 115.926 36.6094 115.18C36.7617 114.43 36.9844 113.699 37.2773 112.996C37.5742 112.289 37.9336 111.617 38.3594 110.984C38.7891 110.348 39.2734 109.762 39.8164 109.219C40.3594 108.68 40.9492 108.195 41.5898 107.773C42.2266 107.348 42.9023 106.988 43.6133 106.695C44.3203 106.402 45.0547 106.18 45.8086 106.031C46.5625 105.883 47.3203 105.805 48.0898 105.805C48.2344 105.805 48.3594 105.754 48.4609 105.652C48.5625 105.551 48.6133 105.43 48.6133 105.285C48.6133 105.141 48.5625 105.02 48.4609 104.918C48.3594 104.816 48.2344 104.766 48.0898 104.766ZM35.8594 113.848C35.5586 112.836 35.1328 111.875 34.5898 110.965C34.043 110.059 33.3984 109.23 32.6445 108.484C31.8945 107.734 31.0625 107.09 30.1484 106.551C29.2344 106.008 28.2695 105.586 27.25 105.285C28.2695 104.984 29.2383 104.563 30.1484 104.02C31.0625 103.477 31.8945 102.832 32.6445 102.086C33.3984 101.336 34.0469 100.508 34.5898 99.6016C35.1328 98.6914 35.5586 97.7305 35.8594 96.7188C36.1641 97.7305 36.5898 98.6914 37.1328 99.6016C37.6797 100.508 38.3281 101.336 39.0781 102.086C39.832 102.832 40.6641 103.477 41.5742 104.02C42.4883 104.563 43.4531 104.984 44.4727 105.285C43.457 105.586 42.4883 106.008 41.5781 106.551C40.6641 107.094 39.832 107.738 39.0781 108.484C38.3281 109.23 37.6797 110.059 37.1328 110.965C36.5898 111.875 36.1641 112.836 35.8594 113.848Z" fill="#3F120F"/>
<path d="M37.3086 63.625C36.9102 62.6016 36.3203 61.6992 35.5391 60.9258C34.7578 60.1484 33.8555 59.5625 32.8281 59.1641C33.8555 58.7656 34.7578 58.1797 35.5391 57.4023C36.3203 56.625 36.9102 55.7266 37.3086 54.7031C37.7109 55.7266 38.3008 56.625 39.082 57.4023C39.8594 58.1797 40.7656 58.7656 41.793 59.1641C40.7656 59.5625 39.8594 60.1484 39.082 60.9258C38.3008 61.6992 37.7109 62.6016 37.3086 63.625Z" fill="#F2E9DF"/>
<path d="M44.6055 58.6445C44.1602 58.6445 43.7227 58.6016 43.2852 58.5117C42.8477 58.4258 42.4258 58.2969 42.0156 58.1289C41.6055 57.9609 41.2148 57.7539 40.8438 57.5078C40.4766 57.2617 40.1328 56.9805 39.8203 56.668C39.5039 56.3555 39.2227 56.0156 38.9766 55.6484C38.7305 55.2812 38.5195 54.8945 38.3516 54.4844C38.1797 54.0742 38.0508 53.6563 37.9648 53.2227C37.8789 52.7891 37.832 52.3477 37.832 51.9062C37.832 51.7656 37.7812 51.6406 37.6797 51.5391C37.5781 51.4375 37.4531 51.3867 37.3086 51.3867C37.168 51.3867 37.043 51.4375 36.9414 51.5391C36.8398 51.6406 36.7891 51.7656 36.7891 51.9062C36.7891 52.3477 36.7422 52.7891 36.6562 53.2227C36.5703 53.6563 36.4414 54.0742 36.2695 54.4844C36.1016 54.8945 35.8906 55.2812 35.6445 55.6484C35.3984 56.0156 35.1172 56.3555 34.8008 56.668C34.4883 56.9805 34.1445 57.2617 33.7773 57.5078C33.4062 57.7539 33.0156 57.9609 32.6055 58.1289C32.1953 58.2969 31.7734 58.4258 31.3359 58.5117C30.8984 58.6016 30.4609 58.6445 30.0156 58.6445C29.8711 58.6445 29.7461 58.6953 29.6445 58.7969C29.543 58.8984 29.4922 59.0195 29.4922 59.1641C29.4922 59.3086 29.543 59.4297 29.6445 59.5312C29.7461 59.6328 29.8711 59.6836 30.0156 59.6836C30.4609 59.6836 30.8984 59.7266 31.3359 59.8125C31.7734 59.9023 32.1953 60.0273 32.6055 60.1992C33.0156 60.3672 33.4062 60.5742 33.7773 60.8203C34.1445 61.0664 34.4883 61.3477 34.8008 61.6602C35.1172 61.9727 35.3984 62.3125 35.6445 62.6797C35.8906 63.0469 36.1016 63.4336 36.2695 63.8438C36.4414 64.25 36.5703 64.6719 36.6562 65.1055C36.7422 65.5391 36.7891 65.9766 36.7891 66.4219C36.7891 66.5625 36.8398 66.6875 36.9414 66.7891C37.043 66.8906 37.168 66.9414 37.3086 66.9414C37.4531 66.9414 37.5781 66.8906 37.6797 66.7891C37.7812 66.6875 37.832 66.5625 37.832 66.4219C37.832 65.9766 37.8789 65.5391 37.9648 65.1055C38.0508 64.6719 38.1797 64.25 38.3516 63.8438C38.5195 63.4336 38.7305 63.0469 38.9766 62.6797C39.2227 62.3125 39.5039 61.9727 39.8203 61.6602C40.1328 61.3477 40.4766 61.0664 40.8438 60.8203C41.2148 60.5742 41.6055 60.3672 42.0156 60.1992C42.4258 60.0273 42.8477 59.9023 43.2852 59.8125C43.7227 59.7266 44.1602 59.6836 44.6055 59.6836C44.75 59.6836 44.875 59.6328 44.9766 59.5312C45.0781 59.4297 45.1289 59.3086 45.1289 59.1641C45.1289 59.0195 45.0781 58.8984 44.9766 58.7969C44.875 58.6953 44.75 58.6445 44.6055 58.6445ZM37.3086 63.625C36.9102 62.6016 36.3203 61.6992 35.5391 60.9258C34.7578 60.1484 33.8555 59.5625 32.8281 59.1641C33.8555 58.7656 34.7578 58.1797 35.5391 57.4023C36.3203 56.625 36.9102 55.7266 37.3086 54.7031C37.7109 55.7266 38.3008 56.625 39.082 57.4023C39.8594 58.1797 40.7656 58.7656 41.793 59.1641C40.7656 59.5625 39.8594 60.1484 39.082 60.9258C38.3008 61.6992 37.7109 62.6016 37.3086 63.625Z" fill="#3F120F"/>
<path d="M133.484 113.848C133.18 112.836 132.754 111.875 132.211 110.965C131.668 110.059 131.02 109.23 130.266 108.484C129.516 107.738 128.684 107.094 127.77 106.551C126.855 106.008 125.891 105.586 124.871 105.285C125.891 104.984 126.855 104.563 127.77 104.02C128.684 103.477 129.516 102.832 130.266 102.086C131.02 101.336 131.668 100.508 132.211 99.6016C132.758 98.6914 133.18 97.7305 133.484 96.7188C133.789 97.7305 134.211 98.6914 134.754 99.6016C135.301 100.508 135.949 101.336 136.699 102.086C137.449 102.832 138.281 103.477 139.195 104.02C140.109 104.563 141.074 104.984 142.094 105.285C141.074 105.586 140.109 106.008 139.195 106.551C138.285 107.09 137.453 107.734 136.699 108.484C135.949 109.23 135.301 110.059 134.758 110.965C134.211 111.875 133.789 112.836 133.484 113.848Z" fill="#F2E9DF"/>
<path d="M145.711 104.766C144.941 104.766 144.18 104.688 143.426 104.539C142.676 104.391 141.941 104.168 141.234 103.875C140.523 103.582 139.848 103.223 139.211 102.797C138.57 102.375 137.98 101.891 137.438 101.352C136.895 100.809 136.41 100.223 135.984 99.5859C135.555 98.9531 135.195 98.2812 134.902 97.5742C134.605 96.8672 134.383 96.1406 134.234 95.3906C134.082 94.6406 134.008 93.8867 134.008 93.1211C134.008 92.9766 133.957 92.8555 133.855 92.7539C133.754 92.6523 133.629 92.6016 133.484 92.6016C133.34 92.6016 133.219 92.6523 133.113 92.7539C133.012 92.8555 132.961 92.9766 132.961 93.1211C132.961 93.8867 132.887 94.6406 132.734 95.3906C132.582 96.1406 132.363 96.8711 132.066 97.5742C131.773 98.2812 131.41 98.9531 130.984 99.5859C130.559 100.223 130.07 100.809 129.527 101.352C128.984 101.891 128.395 102.375 127.754 102.797C127.117 103.223 126.441 103.582 125.734 103.875C125.023 104.168 124.293 104.391 123.539 104.539C122.785 104.688 122.023 104.766 121.254 104.766C121.109 104.766 120.988 104.816 120.887 104.918C120.785 105.02 120.734 105.141 120.734 105.285C120.734 105.43 120.785 105.551 120.887 105.652C120.988 105.754 121.109 105.805 121.254 105.805C122.023 105.805 122.785 105.883 123.539 106.031C124.293 106.18 125.023 106.402 125.734 106.695C126.441 106.988 127.117 107.348 127.754 107.773C128.395 108.195 128.984 108.68 129.527 109.219C130.07 109.762 130.559 110.348 130.984 110.984C131.41 111.617 131.773 112.289 132.066 112.996C132.363 113.699 132.582 114.43 132.734 115.18C132.887 115.926 132.961 116.684 132.961 117.449C132.961 117.594 133.012 117.715 133.113 117.816C133.219 117.918 133.34 117.969 133.484 117.969C133.629 117.969 133.754 117.918 133.855 117.816C133.957 117.715 134.008 117.594 134.008 117.449C134.008 116.684 134.082 115.926 134.234 115.18C134.383 114.43 134.605 113.699 134.902 112.996C135.195 112.289 135.555 111.617 135.984 110.984C136.41 110.348 136.895 109.762 137.438 109.219C137.98 108.68 138.57 108.195 139.211 107.773C139.848 107.348 140.523 106.988 141.234 106.695C141.941 106.402 142.676 106.18 143.426 106.031C144.18 105.883 144.941 105.805 145.711 105.805C145.855 105.805 145.977 105.754 146.078 105.652C146.184 105.551 146.234 105.43 146.234 105.285C146.234 105.141 146.184 105.02 146.078 104.918C145.977 104.816 145.855 104.766 145.711 104.766ZM133.484 113.848C133.18 112.836 132.754 111.875 132.211 110.965C131.668 110.059 131.02 109.23 130.266 108.484C129.516 107.738 128.684 107.094 127.77 106.551C126.855 106.008 125.891 105.586 124.871 105.285C125.891 104.984 126.855 104.563 127.77 104.02C128.684 103.477 129.516 102.832 130.266 102.086C131.02 101.336 131.668 100.508 132.211 99.6016C132.758 98.6914 133.18 97.7305 133.484 96.7188C133.789 97.7305 134.211 98.6914 134.754 99.6016C135.301 100.508 135.949 101.336 136.699 102.086C137.449 102.832 138.281 103.477 139.195 104.02C140.109 104.563 141.074 104.984 142.094 105.285C141.074 105.586 140.109 106.008 139.195 106.551C138.285 107.09 137.453 107.734 136.699 108.484C135.949 109.23 135.301 110.059 134.758 110.965C134.211 111.875 133.789 112.836 133.484 113.848Z" fill="#3F120F"/>
<path d="M132.035 63.625C131.637 62.6016 131.047 61.6992 130.266 60.9258C129.484 60.1484 128.578 59.5625 127.551 59.1641C128.578 58.7656 129.484 58.1797 130.266 57.4023C131.047 56.625 131.637 55.7266 132.035 54.7031C132.434 55.7266 133.023 56.625 133.805 57.4023C134.586 58.1797 135.492 58.7656 136.52 59.1641C135.492 59.5625 134.586 60.1484 133.805 60.9258C133.023 61.6992 132.434 62.6016 132.035 63.625Z" fill="#F2E9DF"/>
<path d="M139.332 58.6445C138.887 58.6445 138.445 58.6016 138.012 58.5117C137.574 58.4258 137.152 58.2969 136.738 58.1289C136.328 57.9609 135.938 57.7539 135.57 57.5078C135.199 57.2617 134.859 56.9805 134.543 56.668C134.23 56.3555 133.949 56.0156 133.703 55.6484C133.453 55.2812 133.246 54.8945 133.074 54.4844C132.906 54.0742 132.777 53.6563 132.688 53.2227C132.602 52.7891 132.559 52.3477 132.559 51.9062C132.559 51.7656 132.508 51.6406 132.406 51.5391C132.301 51.4375 132.18 51.3867 132.035 51.3867C131.891 51.3867 131.77 51.4375 131.664 51.5391C131.563 51.6406 131.512 51.7656 131.512 51.9062C131.512 52.3477 131.469 52.7891 131.383 53.2227C131.293 53.6563 131.164 54.0742 130.996 54.4844C130.824 54.8945 130.617 55.2812 130.367 55.6484C130.121 56.0156 129.84 56.3555 129.527 56.668C129.211 56.9805 128.871 57.2617 128.5 57.5078C128.133 57.7539 127.742 57.9609 127.332 58.1289C126.918 58.2969 126.496 58.4258 126.059 58.5117C125.625 58.6016 125.184 58.6445 124.738 58.6445C124.594 58.6445 124.473 58.6953 124.371 58.7969C124.27 58.8984 124.219 59.0195 124.219 59.1641C124.219 59.3086 124.27 59.4297 124.371 59.5312C124.473 59.6328 124.594 59.6836 124.738 59.6836C125.184 59.6836 125.625 59.7266 126.059 59.8125C126.496 59.9023 126.918 60.0273 127.332 60.1992C127.742 60.3672 128.133 60.5742 128.5 60.8203C128.871 61.0664 129.211 61.3477 129.527 61.6602C129.84 61.9727 130.121 62.3125 130.367 62.6797C130.617 63.0469 130.824 63.4336 130.996 63.8438C131.164 64.25 131.293 64.6719 131.383 65.1055C131.469 65.5391 131.512 65.9766 131.512 66.4219C131.512 66.5625 131.563 66.6875 131.664 66.7891C131.77 66.8906 131.891 66.9414 132.035 66.9414C132.18 66.9414 132.301 66.8906 132.406 66.7891C132.508 66.6875 132.559 66.5625 132.559 66.4219C132.559 65.9766 132.602 65.5391 132.688 65.1055C132.777 64.6719 132.906 64.25 133.074 63.8438C133.246 63.4336 133.453 63.0469 133.703 62.6797C133.949 62.3125 134.23 61.9727 134.543 61.6602C134.859 61.3477 135.199 61.0664 135.57 60.8203C135.938 60.5742 136.328 60.3672 136.738 60.1992C137.152 60.0273 137.574 59.9023 138.012 59.8125C138.445 59.7266 138.887 59.6836 139.332 59.6836C139.477 59.6836 139.598 59.6328 139.699 59.5312C139.801 59.4297 139.852 59.3086 139.852 59.1641C139.852 59.0195 139.801 58.8984 139.699 58.7969C139.598 58.6953 139.477 58.6445 139.332 58.6445ZM132.035 63.625C131.637 62.6016 131.047 61.6992 130.266 60.9258C129.484 60.1484 128.578 59.5625 127.551 59.1641C128.578 58.7656 129.484 58.1797 130.266 57.4023C131.047 56.625 131.637 55.7266 132.035 54.7031C132.434 55.7266 133.023 56.625 133.805 57.4023C134.586 58.1797 135.492 58.7656 136.52 59.1641C135.492 59.5625 134.586 60.1484 133.805 60.9258C133.023 61.6992 132.434 62.6016 132.035 63.625Z" fill="#3F120F"/>
<path d="M48.2422 95.2461L33.0938 86.7109C33.0938 86.7109 31.0586 89.5625 25.9258 88.9922L22 94.4922C21.8164 94.75 21.5859 94.9687 21.3125 95.1367C21.0391 95.3086 20.7461 95.418 20.4297 95.4727C20.1133 95.5273 19.7969 95.5156 19.4844 95.4453C19.1719 95.3711 18.8828 95.2461 18.6211 95.0586C18.3594 94.8711 18.1445 94.6445 17.9727 94.3711C17.8008 94.1016 17.6914 93.8086 17.6367 93.4922C17.582 93.1758 17.5938 92.8594 17.6641 92.5469C17.7383 92.2344 17.8672 91.9492 18.0508 91.6875L22.5586 85.3711L16.6016 87.2656C16.3789 87.3398 16.1484 87.3867 15.918 87.4062C15.6836 87.4297 15.4492 87.4258 15.2148 87.3984C14.9844 87.3711 14.7539 87.3203 14.5352 87.2422C14.3125 87.1641 14.1016 87.0664 13.9023 86.9453C13.6992 86.8242 13.5156 86.6797 13.3437 86.5195C13.1758 86.3594 13.0234 86.1797 12.8945 85.9883C12.7617 85.793 12.6523 85.5859 12.5664 85.3711C12.4766 85.1523 12.4141 84.9297 12.375 84.6992C12.3359 84.4766 12.3242 84.25 12.332 84.0273C12.3398 83.8008 12.3711 83.5781 12.4297 83.3594C12.4844 83.1406 12.5586 82.9297 12.6602 82.7266C12.7578 82.5234 12.875 82.332 13.0156 82.1562C13.1523 81.9766 13.3086 81.8125 13.4805 81.668C13.6523 81.5234 13.8398 81.3945 14.0352 81.2852C14.2344 81.1797 14.4414 81.0937 14.6602 81.0273C14.875 80.9609 15.0977 80.918 15.3242 80.8984L22.0625 80.3164L13.168 75.5391C12.9805 75.4375 12.8086 75.3203 12.6484 75.1836C12.4883 75.0469 12.3437 74.8945 12.2148 74.7266C12.0859 74.5586 11.9766 74.3828 11.8867 74.1914C11.7969 74 11.7266 73.8008 11.6797 73.5977C11.6328 73.3945 11.6055 73.1836 11.6016 72.9727C11.5977 72.7656 11.6172 72.5547 11.6602 72.3477C11.6992 72.1406 11.7617 71.9414 11.8437 71.75C11.9297 71.5547 12.0312 71.3711 12.1523 71.2031C12.3828 70.8789 12.6641 70.6172 13 70.4062C13.3359 70.1992 13.6953 70.0625 14.0859 69.9961C14.4766 69.9297 14.8633 69.9414 15.2461 70.0312C15.6328 70.1172 15.9844 70.2773 16.3086 70.5039L23.0078 75.2578L17.9609 65.7969C17.7734 65.4414 17.6602 65.0625 17.625 64.6602C17.5898 64.2617 17.6367 63.8672 17.7617 63.4844C17.8867 63.1016 18.082 62.7617 18.3477 62.457C18.6133 62.1523 18.9258 61.9141 19.2891 61.7383C19.6328 61.5742 19.9961 61.4766 20.375 61.4492C20.7539 61.4258 21.1289 61.4687 21.4883 61.5859C21.8516 61.6992 22.1797 61.8789 22.4766 62.1211C22.7695 62.3633 23.0078 62.6484 23.1914 62.9844L27.5469 70.9062C26.4023 68.2148 26.8125 65.3438 27.3672 63.3828C27.4648 63.0508 27.6172 62.7422 27.8281 62.4648C28.0391 62.1836 28.293 61.9531 28.5898 61.7695C28.8867 61.582 29.207 61.457 29.5469 61.3906C29.8906 61.3242 30.2344 61.3203 30.582 61.3789C30.9375 61.4414 31.2695 61.5664 31.5781 61.7539C31.8867 61.9375 32.1484 62.1758 32.3672 62.4648C32.5859 62.75 32.7422 63.0664 32.8398 63.4141C32.9375 63.7617 32.9687 64.1133 32.9297 64.4727L32.2852 70.5898C35.0117 73.957 33.9531 78.3164 33.9531 78.3164L53.5352 86.7422L48.2422 95.2461Z" fill="#F2E9DF"/>
<path d="M53.5352 87.2617C53.4609 87.2617 53.3945 87.2461 53.3281 87.2188L33.7461 78.793C33.6328 78.7422 33.5469 78.6641 33.4883 78.5508C33.4336 78.4375 33.418 78.3203 33.4492 78.1953C33.457 78.1563 34.4102 74.0352 31.8828 70.9141C31.793 70.8047 31.7539 70.6758 31.7695 70.5352L32.4102 64.418C32.4414 64.1289 32.418 63.8438 32.3398 63.5664C32.2656 63.2852 32.1406 63.0313 31.9687 62.7969C31.793 62.5664 31.5859 62.3711 31.3398 62.2188C31.0937 62.0625 30.832 61.957 30.5469 61.9023C30.2617 61.8477 29.9766 61.8438 29.6914 61.8945C29.4062 61.9453 29.1367 62.0469 28.8906 62.1953C28.6406 62.3477 28.4297 62.5352 28.2539 62.7656C28.0781 62.9961 27.9453 63.25 27.8672 63.5273C27.3359 65.3906 26.9375 68.1484 28.0234 70.707C28.0977 70.8789 28.082 71.0391 27.9805 71.1953C27.8672 71.3672 25.2461 75.4609 29.8867 79.5039C29.9922 79.6016 30.0469 79.7188 30.0547 79.8594C30.0625 80 30.0195 80.1211 29.9258 80.2305C29.8359 80.3359 29.7187 80.3945 29.5781 80.4063C29.4375 80.4141 29.3125 80.375 29.2031 80.2852C24.543 76.2266 26.3984 71.9336 26.9687 70.8711C25.8867 68.1055 26.3086 65.2109 26.8672 63.2422C26.9844 62.8398 27.168 62.4727 27.4219 62.1406C27.6797 61.8086 27.9844 61.5313 28.3437 61.3125C28.7031 61.0938 29.0898 60.9492 29.5039 60.875C29.918 60.8008 30.332 60.8008 30.7422 60.8828C31.1562 60.9649 31.5391 61.1133 31.8945 61.3398C32.25 61.5625 32.5547 61.8438 32.8047 62.1797C33.0547 62.5156 33.2344 62.8867 33.3437 63.293C33.457 63.6953 33.4883 64.1055 33.4453 64.5234L32.8281 70.4375C35.0547 73.3359 34.7422 76.8047 34.543 78.0078L53.7422 86.2695C53.8555 86.3164 53.9375 86.3945 53.9961 86.5039C54.0547 86.6133 54.0703 86.7305 54.043 86.8477C54.0195 86.9688 53.957 87.0703 53.8633 87.1484C53.7656 87.2227 53.6562 87.2617 53.5352 87.2617Z" fill="#3F120F"/>
<path d="M20.0195 96.0234C19.4727 96.0234 18.9609 95.8789 18.4922 95.5938C18.0234 95.3047 17.6602 94.918 17.4102 94.4336C17.1563 93.9453 17.0508 93.4258 17.0898 92.8789C17.1289 92.332 17.3086 91.8359 17.625 91.3867L21.2305 86.3398L16.7617 87.7617C16.5039 87.8438 16.2461 87.8984 15.9805 87.9219C15.7148 87.9492 15.4492 87.9492 15.1836 87.918C14.918 87.8906 14.6562 87.832 14.4023 87.75C14.1484 87.6641 13.9063 87.5547 13.6758 87.4219C13.4453 87.2852 13.2344 87.1289 13.0352 86.9492C12.8398 86.7695 12.6641 86.5703 12.5078 86.3516C12.3516 86.1367 12.2227 85.9063 12.1172 85.6602C12.0078 85.4141 11.9297 85.1641 11.8789 84.9023C11.8242 84.6406 11.8008 84.375 11.8047 84.1094C11.8086 83.8438 11.8398 83.5781 11.8984 83.3203C11.957 83.0586 12.043 82.8086 12.1563 82.5664C12.2656 82.3242 12.4023 82.0977 12.5625 81.8828C12.7227 81.6719 12.9062 81.4766 13.1055 81.3008C13.3086 81.1289 13.5273 80.9766 13.7617 80.8477C13.9922 80.7148 14.2383 80.6133 14.4961 80.5352C14.75 80.457 15.0117 80.4063 15.2773 80.3867L20.2852 79.9531L12.9219 75.9961C12.7109 75.8828 12.5117 75.75 12.3281 75.5977C12.1445 75.4453 11.9766 75.2734 11.8281 75.0859C11.6797 74.8984 11.5508 74.6992 11.4453 74.4844C11.3359 74.2734 11.25 74.0508 11.1875 73.8203C11.1289 73.5898 11.0898 73.3555 11.0742 73.1172C11.0625 72.8789 11.0742 72.6406 11.1094 72.4063C11.1445 72.168 11.2031 71.9375 11.2852 71.7148C11.3672 71.4883 11.4727 71.2773 11.5977 71.0742C11.7227 70.8711 11.8711 70.6836 12.0352 70.5117C12.1992 70.3359 12.3828 70.1836 12.5781 70.0469C12.7734 69.9102 12.9844 69.7969 13.2031 69.7031C13.4258 69.6094 13.6523 69.5391 13.8867 69.4922C14.1211 69.4453 14.3594 69.4258 14.5977 69.4258C14.8398 69.4297 15.0742 69.457 15.3086 69.5039C15.543 69.5547 15.7695 69.6289 15.9883 69.7266C16.207 69.8242 16.4141 69.9414 16.6094 70.082L21.5156 73.5625L17.5039 66.0391C17.2813 65.6328 17.1484 65.1992 17.1016 64.7422C17.0547 64.2813 17.0977 63.832 17.2305 63.3906C17.3633 62.9492 17.5742 62.5469 17.8672 62.1875C18.1602 61.832 18.5078 61.543 18.9141 61.3242C19.3242 61.1055 19.7578 60.9688 20.2188 60.9219C20.6797 60.875 21.1289 60.918 21.5742 61.0508C22.0156 61.1836 22.418 61.3945 22.7773 61.6836C23.1367 61.9766 23.4258 62.3242 23.6484 62.7305L28.0039 70.6602C28.0703 70.7852 28.0859 70.918 28.0469 71.0547C28.0039 71.1914 27.9219 71.293 27.7969 71.3633C27.668 71.4336 27.5391 71.4453 27.3984 71.4063C27.2617 71.3672 27.1602 71.2813 27.0898 71.1563L22.7344 63.2305C22.5781 62.9492 22.375 62.707 22.1211 62.5078C21.8711 62.3047 21.5898 62.1602 21.2812 62.0703C20.9688 61.9805 20.6563 61.9492 20.332 61.9844C20.0117 62.0195 19.7109 62.1133 19.4258 62.2656C19.1406 62.418 18.8984 62.6172 18.6953 62.8672C18.4883 63.1172 18.3398 63.3945 18.2461 63.7031C18.1523 64.0117 18.1211 64.3242 18.1484 64.6445C18.1797 64.9648 18.2695 65.2695 18.4219 65.5547L23.4648 75.0117C23.5234 75.1211 23.5391 75.2305 23.5195 75.3516C23.4961 75.4688 23.4414 75.5664 23.3516 75.6445C23.2578 75.7266 23.1523 75.7695 23.0352 75.7734C22.9141 75.7813 22.8047 75.75 22.707 75.6797L16.0078 70.9258C15.7305 70.7266 15.4258 70.5898 15.0898 70.5195C14.7578 70.4453 14.4258 70.4414 14.0898 70.5078C13.7539 70.5742 13.4492 70.7031 13.168 70.8945C12.8867 71.0898 12.6563 71.3281 12.4766 71.6172C12.2969 71.9063 12.1797 72.2188 12.1328 72.5547C12.082 72.8945 12.1016 73.2266 12.1914 73.5547C12.2813 73.8828 12.4297 74.1797 12.6445 74.4453C12.8555 74.7109 13.1133 74.9219 13.4141 75.082L22.3086 79.8594C22.5391 79.9805 22.625 80.168 22.5742 80.4219C22.5195 80.6719 22.3672 80.8086 22.1094 80.832L15.3672 81.4141C14.9844 81.4492 14.625 81.5586 14.2852 81.7422C13.9492 81.9258 13.6602 82.168 13.4258 82.4727C13.1914 82.7773 13.0273 83.1133 12.9336 83.4844C12.8398 83.8594 12.8242 84.2344 12.8867 84.6133C12.918 84.8047 12.9727 84.9961 13.0469 85.1758C13.1211 85.3594 13.2109 85.5313 13.3242 85.6953C13.4336 85.8594 13.5586 86.0078 13.7031 86.1445C13.8477 86.2813 14 86.3984 14.1719 86.5039C14.3398 86.6055 14.5156 86.6875 14.7031 86.7539C14.8906 86.8164 15.082 86.8594 15.2773 86.8828C15.4727 86.9063 15.6719 86.9102 15.8672 86.8906C16.0625 86.8711 16.2539 86.832 16.4453 86.7734L22.4023 84.8789C22.6406 84.8008 22.832 84.8672 22.9805 85.0664C23.125 85.2695 23.1289 85.4688 22.9805 85.6719L18.4766 91.9883C18.3398 92.1953 18.2461 92.418 18.1992 92.6602C18.1484 92.8984 18.1484 93.1406 18.1953 93.3828C18.2383 93.625 18.3281 93.8516 18.4609 94.0586C18.5937 94.2656 18.7617 94.4375 18.9609 94.582C19.1641 94.7266 19.3828 94.8242 19.625 94.8828C19.8633 94.9375 20.1055 94.9492 20.3477 94.9141C20.5938 94.875 20.8203 94.7969 21.0352 94.6719C21.2461 94.5469 21.4297 94.3867 21.5781 94.1914L25.5039 88.6914C25.6211 88.5234 25.7812 88.4531 25.9844 88.4766C30.7227 89 32.5938 86.5117 32.6719 86.4063C32.75 86.3008 32.8516 86.2344 32.9805 86.2031C33.1133 86.1758 33.2344 86.1953 33.3477 86.2578L48.4961 94.793C48.625 94.8594 48.707 94.9648 48.7461 95.1055C48.7852 95.2422 48.7695 95.375 48.6992 95.5C48.6289 95.6289 48.5234 95.7109 48.3828 95.7461C48.2422 95.7852 48.1094 95.7656 47.9844 95.6953L33.207 87.3672C32.457 88.1523 30.2852 89.8984 26.1758 89.5352L22.4258 94.793C22.1484 95.1797 21.7969 95.4805 21.375 95.6992C20.9492 95.918 20.5 96.0234 20.0195 96.0234Z" fill="#3F120F"/>
<path d="M120.922 95.2969L136.07 86.7617C136.07 86.7617 138.105 89.6172 143.238 89.043L147.164 94.543C147.348 94.8047 147.578 95.0195 147.852 95.1914C148.125 95.3594 148.418 95.4726 148.734 95.5273C149.051 95.5781 149.367 95.5703 149.68 95.5C149.992 95.4258 150.281 95.2969 150.543 95.1133C150.805 94.9258 151.02 94.6992 151.191 94.4258C151.363 94.1523 151.473 93.8594 151.527 93.543C151.582 93.2266 151.57 92.9141 151.5 92.6016C151.43 92.2891 151.297 92.0039 151.113 91.7422L146.605 85.4258L152.562 87.3203C152.785 87.3906 153.016 87.4375 153.25 87.4609C153.48 87.4844 153.715 87.4805 153.949 87.4531C154.18 87.4258 154.41 87.3711 154.629 87.2969C154.852 87.2187 155.062 87.1211 155.266 86.9961C155.465 86.875 155.648 86.7344 155.82 86.5742C155.988 86.4101 156.141 86.2344 156.27 86.0391C156.402 85.8476 156.512 85.6406 156.602 85.4219C156.688 85.207 156.75 84.9805 156.789 84.75C156.828 84.5273 156.84 84.3047 156.832 84.0781C156.824 83.8555 156.793 83.6328 156.734 83.4141C156.68 83.1953 156.605 82.9844 156.504 82.7812C156.406 82.5781 156.289 82.3867 156.148 82.207C156.012 82.0312 155.855 81.8672 155.684 81.7226C155.512 81.5742 155.324 81.4492 155.129 81.3398C154.93 81.2305 154.723 81.1445 154.504 81.082C154.289 81.0156 154.066 80.9726 153.84 80.9531L147.102 80.3672L155.996 75.5898C156.184 75.4922 156.355 75.3711 156.516 75.2344C156.676 75.1016 156.82 74.9492 156.949 74.7812C157.078 74.6133 157.187 74.4336 157.277 74.2422C157.367 74.0547 157.438 73.8555 157.484 73.6523C157.531 73.4453 157.559 73.2383 157.562 73.0273C157.566 72.8164 157.547 72.6094 157.504 72.4023C157.465 72.1953 157.402 71.9961 157.32 71.8008C157.234 71.6094 157.133 71.4258 157.012 71.2539C156.781 70.9336 156.5 70.668 156.164 70.4609C155.828 70.25 155.469 70.1133 155.078 70.0469C154.688 69.9844 154.301 69.9922 153.918 70.082C153.531 70.1719 153.18 70.3281 152.855 70.5547L146.156 75.3086L151.203 65.8476C151.391 65.4922 151.504 65.1133 151.539 64.7148C151.574 64.3125 151.527 63.9219 151.402 63.5391C151.277 63.1562 151.082 62.8125 150.816 62.5078C150.551 62.207 150.238 61.9648 149.875 61.7891C149.531 61.625 149.168 61.5312 148.789 61.5039C148.41 61.4766 148.039 61.5195 147.676 61.6367C147.313 61.75 146.984 61.9297 146.688 62.1719C146.395 62.4141 146.156 62.7031 145.973 63.0351L141.617 70.9609C142.762 68.2695 142.352 65.3945 141.801 63.4375C141.703 63.1016 141.547 62.793 141.34 62.5156C141.129 62.2383 140.875 62.0039 140.578 61.8203C140.281 61.6367 139.961 61.5078 139.617 61.4414C139.273 61.375 138.93 61.3711 138.586 61.4336C138.23 61.4922 137.898 61.6172 137.59 61.8047C137.281 61.9922 137.016 62.2266 136.797 62.5156C136.578 62.8008 136.422 63.1172 136.324 63.4648C136.227 63.8125 136.199 64.1641 136.234 64.5234L136.875 70.6445C134.148 74.0078 135.211 78.3711 135.211 78.3711L115.629 86.7969L120.922 95.2969Z" fill="#F2E9DF"/>
<path d="M115.629 87.3125C115.508 87.3125 115.398 87.2734 115.301 87.1992C115.203 87.1211 115.145 87.0195 115.117 86.8984C115.094 86.7812 115.109 86.6641 115.168 86.5547C115.223 86.4453 115.309 86.3672 115.422 86.3203L134.621 78.0586C134.422 76.8516 134.109 73.3867 136.336 70.4844L135.719 64.5742C135.676 64.1601 135.707 63.75 135.82 63.3437C135.93 62.9414 136.113 62.5703 136.363 62.2344C136.613 61.8984 136.914 61.6172 137.27 61.3945C137.625 61.1719 138.012 61.0195 138.422 60.9375C138.836 60.8594 139.246 60.8555 139.66 60.9297C140.074 61.0039 140.461 61.1523 140.82 61.3672C141.176 61.5859 141.484 61.8633 141.738 62.1953C141.996 62.5273 142.18 62.8945 142.297 63.2969C142.855 65.2617 143.277 68.1562 142.195 70.9219C142.766 71.9883 144.621 76.2812 139.961 80.3398C139.852 80.4336 139.727 80.4766 139.582 80.4648C139.438 80.457 139.32 80.3984 139.227 80.2891C139.133 80.1797 139.09 80.0547 139.102 79.9101C139.109 79.7695 139.168 79.6484 139.277 79.5547C143.941 75.4922 141.301 71.418 141.188 71.2461C141.082 71.0898 141.066 70.9297 141.141 70.7578C142.227 68.1953 141.828 65.4375 141.301 63.5781C141.223 63.3008 141.098 63.0508 140.926 62.8242C140.754 62.5937 140.547 62.4062 140.301 62.2539C140.059 62.1016 139.797 62 139.516 61.9453C139.234 61.8945 138.953 61.8906 138.672 61.9414C138.383 61.9922 138.113 62.0937 137.859 62.2461C137.609 62.3984 137.395 62.5937 137.215 62.8281C137.035 63.0625 136.906 63.3203 136.828 63.6055C136.75 63.8867 136.723 64.1758 136.754 64.4687L137.395 70.5859C137.41 70.7266 137.371 70.8555 137.281 70.9648C134.754 74.0859 135.707 78.207 135.719 78.25C135.746 78.3711 135.734 78.4883 135.676 78.6016C135.621 78.7148 135.535 78.7969 135.418 78.8437L115.836 87.2695C115.77 87.2969 115.703 87.3125 115.629 87.3125Z" fill="#3F120F"/>
<path d="M149.141 96.0742C148.664 96.0781 148.215 95.9687 147.789 95.75C147.367 95.5312 147.016 95.2305 146.738 94.8437L142.988 89.5859C138.875 89.9531 136.707 88.207 135.957 87.4219L121.18 95.7461C121.055 95.8164 120.922 95.8359 120.785 95.7969C120.645 95.7578 120.543 95.6758 120.473 95.5508C120.402 95.4258 120.383 95.2969 120.422 95.1562C120.461 95.0195 120.543 94.9141 120.668 94.8437L135.812 86.3086C135.93 86.2461 136.051 86.2266 136.184 86.2578C136.312 86.2852 136.414 86.3516 136.492 86.4609C136.57 86.5664 138.445 89.0508 143.18 88.5273C143.383 88.5039 143.543 88.5742 143.66 88.7422L147.586 94.2422C147.727 94.457 147.906 94.6367 148.121 94.7812C148.34 94.9219 148.574 95.0195 148.828 95.0664C149.082 95.1133 149.336 95.1094 149.586 95.0547C149.84 95 150.074 94.8945 150.281 94.7461C150.492 94.5976 150.668 94.4101 150.801 94.1914C150.937 93.9726 151.023 93.7344 151.062 93.4805C151.102 93.2226 151.086 92.9727 151.023 92.7227C150.957 92.4727 150.848 92.2461 150.687 92.0391L146.184 85.7266C146.039 85.5234 146.039 85.3203 146.187 85.1172C146.332 84.918 146.527 84.8555 146.766 84.9297L152.723 86.8242C152.91 86.8867 153.102 86.9258 153.297 86.9414C153.496 86.9609 153.691 86.9609 153.887 86.9375C154.082 86.9141 154.273 86.8672 154.461 86.8047C154.648 86.7383 154.824 86.6562 154.992 86.5547C155.164 86.4531 155.316 86.332 155.461 86.1953C155.605 86.0586 155.73 85.9102 155.84 85.7461C155.953 85.5859 156.043 85.4102 156.117 85.2305C156.191 85.0469 156.246 84.8594 156.277 84.6641C156.34 84.2852 156.328 83.9102 156.234 83.5391C156.141 83.1641 155.977 82.8281 155.738 82.5234C155.504 82.2187 155.219 81.9766 154.879 81.793C154.543 81.6094 154.18 81.5 153.797 81.4687L147.055 80.8828C146.801 80.8594 146.645 80.7227 146.594 80.4727C146.539 80.2187 146.629 80.0352 146.855 79.9102L155.75 75.1328C156.051 74.9766 156.309 74.7617 156.52 74.4961C156.734 74.2305 156.883 73.9336 156.973 73.6055C157.059 73.2773 157.078 72.9453 157.031 72.6094C156.98 72.2734 156.867 71.9609 156.684 71.6719C156.504 71.3828 156.273 71.1445 155.996 70.9492C155.715 70.7578 155.406 70.6289 155.074 70.5625C154.738 70.4961 154.406 70.5 154.07 70.5703C153.738 70.6445 153.434 70.7812 153.156 70.9766L146.461 75.7305C146.359 75.8008 146.25 75.832 146.133 75.8242C146.012 75.8203 145.906 75.7773 145.816 75.6992C145.723 75.6172 145.668 75.5195 145.648 75.4023C145.625 75.2851 145.641 75.1719 145.699 75.0664L150.742 65.6055C150.891 65.3203 150.98 65.0195 151.012 64.6992C151.039 64.3789 151.008 64.0664 150.914 63.7578C150.82 63.4492 150.668 63.1719 150.465 62.9258C150.262 62.6758 150.016 62.4766 149.734 62.3242C149.449 62.1719 149.148 62.0781 148.828 62.043C148.508 62.0117 148.191 62.0391 147.883 62.1289C147.574 62.2187 147.293 62.3633 147.043 62.5625C146.789 62.7617 146.586 63.0039 146.43 63.2851L142.074 71.207C142.004 71.332 141.902 71.418 141.762 71.457C141.625 71.4961 141.496 71.4805 141.367 71.4141C141.242 71.3437 141.16 71.2422 141.121 71.1055C141.078 70.9687 141.094 70.8359 141.16 70.7109L145.52 62.7851C145.738 62.3828 146.031 62.0391 146.391 61.75C146.746 61.4648 147.148 61.2539 147.59 61.125C148.031 60.9961 148.48 60.957 148.937 61.0039C149.398 61.0508 149.828 61.1836 150.234 61.4023C150.637 61.6211 150.984 61.9062 151.277 62.2617C151.57 62.6172 151.781 63.0156 151.914 63.4531C152.047 63.8945 152.094 64.3398 152.051 64.7969C152.004 65.2539 151.875 65.6875 151.66 66.0898L147.648 73.6133L152.555 70.1328C152.75 69.9922 152.957 69.875 153.176 69.7773C153.395 69.6797 153.621 69.6094 153.855 69.5586C154.09 69.5078 154.324 69.4805 154.566 69.4766C154.805 69.4766 155.043 69.4961 155.277 69.543C155.512 69.5898 155.742 69.6601 155.961 69.7539C156.184 69.8476 156.391 69.9609 156.586 70.0976C156.785 70.2344 156.965 70.3867 157.133 70.5625C157.297 70.7344 157.441 70.9219 157.57 71.125C157.695 71.3281 157.801 71.5391 157.883 71.7656C157.965 71.9883 158.023 72.2187 158.059 72.457C158.094 72.6914 158.105 72.9297 158.09 73.168C158.078 73.4062 158.039 73.6406 157.977 73.8711C157.914 74.1016 157.828 74.3242 157.723 74.5391C157.613 74.75 157.484 74.9531 157.336 75.1367C157.187 75.3242 157.02 75.4961 156.836 75.6484C156.652 75.8008 156.453 75.9336 156.242 76.0469L148.879 80L153.887 80.4375C154.152 80.457 154.414 80.5078 154.668 80.5859C154.926 80.6641 155.168 80.7695 155.402 80.8984C155.637 81.0273 155.852 81.1797 156.055 81.3555C156.254 81.5312 156.437 81.7227 156.594 81.9375C156.754 82.1484 156.891 82.3789 157.004 82.6172C157.117 82.8594 157.203 83.1094 157.262 83.3711C157.32 83.6289 157.352 83.8945 157.355 84.1602C157.355 84.4258 157.332 84.6914 157.281 84.9492C157.227 85.2109 157.148 85.4648 157.043 85.707C156.937 85.9531 156.805 86.1836 156.652 86.4023C156.496 86.6172 156.32 86.8164 156.125 86.9961C155.926 87.1758 155.715 87.332 155.484 87.4687C155.254 87.6055 155.012 87.7148 154.758 87.7969C154.504 87.8828 154.246 87.9375 153.98 87.9687C153.715 88 153.449 88 153.184 87.9727C152.918 87.9492 152.66 87.8945 152.406 87.8125L147.934 86.3906L151.535 91.4375C151.855 91.8867 152.035 92.3828 152.074 92.9297C152.113 93.4805 152.008 93.9961 151.754 94.4844C151.504 94.9726 151.141 95.3594 150.672 95.6445C150.203 95.9336 149.691 96.0742 149.141 96.0742Z" fill="#3F120F"/>
<path d="M54.3711 49.9492H114.793C115.195 49.9492 115.594 49.9883 115.988 50.0664C116.383 50.1445 116.766 50.2617 117.137 50.4141C117.512 50.5664 117.863 50.7578 118.199 50.9805C118.535 51.2031 118.844 51.457 119.129 51.7383C119.414 52.0234 119.668 52.332 119.891 52.668C120.113 53 120.305 53.3516 120.457 53.7227C120.613 54.0938 120.727 54.4766 120.805 54.8711C120.887 55.2656 120.926 55.6641 120.926 56.0625V146.656C120.926 147.285 120.895 147.914 120.832 148.543C120.77 149.168 120.676 149.793 120.555 150.41C120.43 151.027 120.277 151.637 120.094 152.238C119.91 152.844 119.699 153.434 119.457 154.016C119.215 154.598 118.945 155.168 118.648 155.723C118.348 156.277 118.023 156.816 117.672 157.344C117.324 157.867 116.945 158.371 116.547 158.859C116.145 159.344 115.723 159.813 115.273 160.258C114.828 160.703 114.359 161.125 113.871 161.523C113.383 161.922 112.879 162.297 112.352 162.648C111.828 163 111.285 163.32 110.727 163.617C110.172 163.914 109.602 164.184 109.016 164.426C108.434 164.668 107.84 164.879 107.234 165.062C106.629 165.246 106.02 165.398 105.398 165.52C104.777 165.645 104.156 165.734 103.527 165.797C102.898 165.859 102.266 165.891 101.637 165.891H54.3711C53.9687 165.891 53.5703 165.852 53.1758 165.773C52.7813 165.695 52.3984 165.578 52.0273 165.426C51.6523 165.27 51.3008 165.082 50.9648 164.859C50.6289 164.637 50.3203 164.383 50.0352 164.098C49.75 163.816 49.4961 163.504 49.2734 163.172C49.0508 162.84 48.8594 162.484 48.707 162.113C48.5547 161.742 48.4375 161.363 48.3594 160.969C48.2812 160.574 48.2383 160.176 48.2383 159.773V56.0625C48.2383 55.6641 48.2812 55.2656 48.3594 54.8711C48.4375 54.4766 48.5547 54.0938 48.707 53.7227C48.8594 53.3516 49.0508 53 49.2734 52.668C49.4961 52.332 49.75 52.0234 50.0352 51.7383C50.3203 51.457 50.6289 51.2031 50.9648 50.9805C51.3008 50.7578 51.6523 50.5664 52.0273 50.4141C52.3984 50.2617 52.7813 50.1445 53.1758 50.0664C53.5703 49.9883 53.9687 49.9492 54.3711 49.9492Z" fill="#F2E9DF"/>
<path d="M101.633 166.406H54.3711C53.9375 166.406 53.5039 166.363 53.0742 166.281C52.6484 166.195 52.2305 166.066 51.8281 165.902C51.4258 165.734 51.043 165.531 50.6797 165.289C50.3164 165.047 49.9805 164.77 49.6719 164.465C49.3633 164.156 49.0859 163.82 48.8438 163.457C48.6016 163.098 48.3945 162.715 48.2266 162.312C48.0625 161.91 47.9336 161.496 47.8477 161.07C47.7656 160.641 47.7227 160.211 47.7188 159.773V56.0625C47.7227 55.6289 47.7656 55.1992 47.8477 54.7695C47.9336 54.3438 48.0625 53.9297 48.2266 53.5273C48.3945 53.125 48.6016 52.7422 48.8438 52.3789C49.0859 52.0195 49.3633 51.6836 49.6719 51.375C49.9805 51.0664 50.3164 50.793 50.6797 50.5508C51.043 50.3086 51.4258 50.1055 51.8281 49.9375C52.2305 49.7695 52.6484 49.6445 53.0742 49.5586C53.5039 49.4727 53.9375 49.4297 54.3711 49.4297H114.793C115.227 49.4297 115.66 49.4727 116.09 49.5586C116.516 49.6445 116.934 49.7695 117.336 49.9375C117.738 50.1055 118.121 50.3086 118.484 50.5508C118.848 50.793 119.184 51.0664 119.492 51.375C119.801 51.6836 120.078 52.0195 120.32 52.3789C120.563 52.7422 120.77 53.125 120.938 53.5273C121.102 53.9297 121.23 54.3438 121.316 54.7695C121.402 55.1992 121.445 55.6289 121.445 56.0625V146.656C121.441 147.305 121.41 147.949 121.348 148.594C121.281 149.234 121.187 149.875 121.059 150.508C120.934 151.145 120.773 151.77 120.586 152.387C120.398 153.008 120.18 153.613 119.93 154.211C119.68 154.809 119.406 155.395 119.098 155.965C118.793 156.535 118.461 157.086 118.098 157.625C117.738 158.164 117.352 158.68 116.941 159.18C116.527 159.68 116.094 160.16 115.637 160.617C115.176 161.074 114.695 161.508 114.195 161.918C113.695 162.328 113.176 162.715 112.637 163.074C112.098 163.434 111.539 163.766 110.969 164.07C110.395 164.375 109.812 164.652 109.211 164.898C108.613 165.148 108.004 165.363 107.383 165.555C106.762 165.742 106.133 165.898 105.496 166.023C104.863 166.152 104.223 166.246 103.574 166.312C102.93 166.375 102.285 166.406 101.633 166.406ZM54.3711 50.4688C54.0039 50.4688 53.6406 50.5039 53.2773 50.5742C52.918 50.6484 52.5664 50.7539 52.2266 50.8945C51.8867 51.0352 51.5625 51.207 51.2539 51.4141C50.9492 51.6172 50.6641 51.8477 50.4062 52.1094C50.1445 52.3672 49.9102 52.6523 49.707 52.957C49.5039 53.2617 49.3281 53.582 49.1875 53.9219C49.0469 54.2617 48.9414 54.6133 48.8672 54.9727C48.7969 55.332 48.7617 55.6953 48.7617 56.0625V159.773C48.7617 160.141 48.7969 160.508 48.8672 160.867C48.9414 161.227 49.0469 161.578 49.1875 161.914C49.3281 162.254 49.5039 162.578 49.707 162.883C49.9102 163.188 50.1445 163.473 50.4062 163.73C50.6641 163.992 50.9492 164.223 51.2539 164.426C51.5625 164.633 51.8867 164.805 52.2266 164.945C52.5664 165.086 52.918 165.191 53.2773 165.262C53.6406 165.336 54.0039 165.371 54.3711 165.371H101.633C102.25 165.371 102.863 165.34 103.473 165.281C104.086 165.219 104.691 165.129 105.293 165.008C105.898 164.887 106.492 164.738 107.082 164.562C107.668 164.383 108.246 164.176 108.812 163.941C109.383 163.707 109.938 163.445 110.477 163.156C111.02 162.867 111.547 162.551 112.059 162.211C112.566 161.871 113.063 161.508 113.535 161.117C114.012 160.727 114.465 160.316 114.898 159.883C115.336 159.449 115.746 158.996 116.137 158.523C116.527 158.051 116.891 157.559 117.234 157.051C117.574 156.539 117.891 156.016 118.18 155.477C118.473 154.934 118.734 154.383 118.969 153.816C119.203 153.25 119.41 152.672 119.59 152.086C119.77 151.5 119.918 150.906 120.039 150.309C120.16 149.707 120.25 149.102 120.312 148.492C120.371 147.883 120.402 147.27 120.402 146.656V56.0625C120.402 55.6953 120.367 55.332 120.293 54.9727C120.223 54.6133 120.117 54.2617 119.977 53.9219C119.832 53.582 119.66 53.2617 119.457 52.957C119.25 52.6523 119.02 52.3672 118.758 52.1094C118.496 51.8477 118.215 51.6172 117.906 51.4141C117.602 51.207 117.277 51.0352 116.938 50.8945C116.598 50.7539 116.246 50.6484 115.887 50.5742C115.523 50.5039 115.16 50.4688 114.793 50.4688H54.3711Z" fill="#3F120F"/>
<path d="M56.2773 58.8477H112.887C113.121 58.8477 113.348 58.8906 113.566 58.9805C113.785 59.0703 113.977 59.1992 114.141 59.3633C114.309 59.5313 114.437 59.7227 114.527 59.9375C114.617 60.1562 114.66 60.3789 114.66 60.6133V98.082C114.66 98.9023 114.582 99.7148 114.422 100.52C114.262 101.328 114.023 102.109 113.707 102.867C113.391 103.625 113.004 104.348 112.547 105.031C112.09 105.711 111.57 106.344 110.988 106.926C110.406 107.504 109.773 108.023 109.086 108.48C108.402 108.937 107.68 109.32 106.918 109.637C106.156 109.949 105.375 110.188 104.566 110.348C103.758 110.508 102.941 110.586 102.117 110.586H56.2773C56.043 110.586 55.8164 110.543 55.5977 110.453C55.3789 110.363 55.1875 110.234 55.0234 110.07C54.8555 109.902 54.7266 109.711 54.6367 109.496C54.5469 109.277 54.5039 109.055 54.5039 108.82V60.6133C54.5039 60.3789 54.5469 60.1562 54.6367 59.9375C54.7266 59.7227 54.8555 59.5313 55.0234 59.3633C55.1875 59.1992 55.3789 59.0703 55.5977 58.9805C55.8164 58.8906 56.043 58.8477 56.2773 58.8477Z" fill="#CA4727"/>
<path d="M102.117 111.105H56.2773C55.9727 111.105 55.6797 111.047 55.3984 110.93C55.1172 110.816 54.8711 110.648 54.6562 110.438C54.4414 110.223 54.2734 109.973 54.1562 109.695C54.043 109.414 53.9844 109.121 53.9844 108.82V60.6133C53.9844 60.3125 54.043 60.0195 54.1602 59.7383C54.2734 59.4609 54.4414 59.2109 54.6562 59C54.8711 58.7852 55.1172 58.6172 55.3984 58.5039C55.6797 58.3867 55.9727 58.3281 56.2773 58.3281H112.887C113.191 58.3281 113.484 58.3867 113.766 58.5039C114.047 58.6172 114.293 58.7852 114.508 59C114.723 59.2109 114.891 59.4609 115.008 59.7383C115.121 60.0195 115.18 60.3125 115.18 60.6133V98.082C115.18 98.9375 115.098 99.7812 114.93 100.621C114.762 101.461 114.512 102.273 114.184 103.062C113.855 103.852 113.453 104.602 112.977 105.312C112.5 106.023 111.957 106.684 111.352 107.285C110.746 107.891 110.086 108.43 109.371 108.906C108.66 109.383 107.906 109.781 107.117 110.109C106.324 110.438 105.508 110.688 104.668 110.852C103.824 111.02 102.977 111.105 102.117 111.105ZM56.2773 59.3633C56.1094 59.3633 55.9492 59.3945 55.7969 59.4609C55.6445 59.5234 55.5078 59.6133 55.3906 59.7305C55.2734 59.8477 55.1836 59.9844 55.1172 60.1367C55.0547 60.2891 55.0234 60.4492 55.0234 60.6133V108.816C55.0234 108.984 55.0547 109.145 55.1172 109.297C55.1836 109.449 55.2734 109.586 55.3906 109.703C55.5078 109.82 55.6445 109.91 55.7969 109.973C55.9492 110.035 56.1094 110.066 56.2773 110.066H102.117C102.906 110.066 103.691 109.988 104.465 109.836C105.238 109.68 105.988 109.453 106.719 109.152C107.445 108.852 108.141 108.48 108.797 108.043C109.449 107.605 110.059 107.109 110.617 106.555C111.176 105.996 111.672 105.391 112.109 104.738C112.551 104.082 112.922 103.395 113.223 102.664C113.523 101.938 113.754 101.191 113.91 100.418C114.063 99.6484 114.141 98.8672 114.141 98.082V60.6133C114.141 60.4492 114.109 60.2891 114.047 60.1367C113.98 59.9844 113.891 59.8477 113.773 59.7305C113.656 59.6133 113.52 59.5234 113.367 59.4609C113.215 59.3945 113.055 59.3633 112.887 59.3633H56.2773Z" fill="#3F120F"/>
<path d="M63.7422 65.1641H105.422V104.023H63.7422V65.1641Z" fill="#FFE26F"/>
<path d="M105.422 104.539H63.7422C63.5977 104.539 63.4766 104.488 63.375 104.387C63.2734 104.285 63.2227 104.164 63.2227 104.02V65.1641C63.2227 65.0195 63.2734 64.8984 63.375 64.7969C63.4766 64.6953 63.5977 64.6445 63.7422 64.6445H105.422C105.566 64.6445 105.691 64.6953 105.789 64.7969C105.891 64.8984 105.941 65.0195 105.941 65.1641V104.02C105.941 104.164 105.891 104.285 105.789 104.387C105.691 104.488 105.566 104.539 105.422 104.539ZM64.2617 103.504H104.902V65.6836H64.2617V103.504Z" fill="#3F120F"/>
<path d="M101.688 133.18C101.688 133.516 101.652 133.848 101.586 134.18C101.523 134.508 101.426 134.828 101.297 135.141C101.164 135.453 101.008 135.746 100.82 136.027C100.633 136.309 100.418 136.566 100.18 136.805C99.9414 137.043 99.6836 137.254 99.4023 137.441C99.1211 137.629 98.8242 137.789 98.5117 137.914C98.1992 138.043 97.8789 138.141 97.5469 138.207C97.2148 138.273 96.8828 138.305 96.543 138.305C96.207 138.305 95.8711 138.273 95.5391 138.207C95.2109 138.141 94.8867 138.043 94.5742 137.914C94.2656 137.789 93.9688 137.629 93.6875 137.441C93.4062 137.254 93.1484 137.043 92.9062 136.805C92.668 136.566 92.457 136.309 92.2695 136.027C92.082 135.746 91.9219 135.453 91.793 135.141C91.6641 134.828 91.5664 134.508 91.5 134.18C91.4336 133.848 91.4023 133.516 91.4023 133.18C91.4023 132.844 91.4336 132.508 91.5 132.18C91.5664 131.848 91.6641 131.527 91.793 131.215C91.9219 130.906 92.082 130.609 92.2695 130.332C92.457 130.051 92.668 129.793 92.9062 129.555C93.1484 129.316 93.4062 129.102 93.6875 128.914C93.9688 128.727 94.2656 128.57 94.5742 128.441C94.8867 128.313 95.2109 128.215 95.5391 128.148C95.8711 128.086 96.207 128.051 96.543 128.051C96.8828 128.051 97.2148 128.086 97.5469 128.148C97.8789 128.215 98.1992 128.313 98.5117 128.441C98.8242 128.57 99.1211 128.727 99.4023 128.914C99.6836 129.102 99.9414 129.316 100.18 129.555C100.418 129.793 100.633 130.051 100.82 130.332C101.008 130.609 101.164 130.906 101.297 131.215C101.426 131.527 101.523 131.848 101.586 132.18C101.652 132.508 101.688 132.844 101.688 133.18Z" fill="#CA4727"/>
<path d="M114.969 124.539C114.969 124.875 114.937 125.207 114.871 125.539C114.805 125.867 114.707 126.188 114.578 126.5C114.449 126.812 114.289 127.105 114.102 127.387C113.914 127.668 113.703 127.926 113.465 128.164C113.227 128.402 112.965 128.613 112.684 128.801C112.402 128.988 112.105 129.148 111.797 129.273C111.484 129.402 111.16 129.5 110.832 129.566C110.5 129.633 110.164 129.664 109.828 129.664C109.488 129.664 109.156 129.633 108.824 129.566C108.492 129.5 108.172 129.402 107.859 129.273C107.547 129.148 107.25 128.988 106.969 128.801C106.691 128.613 106.43 128.402 106.191 128.164C105.953 127.926 105.738 127.668 105.551 127.387C105.363 127.105 105.207 126.812 105.078 126.5C104.949 126.188 104.852 125.867 104.785 125.539C104.719 125.207 104.684 124.875 104.684 124.539C104.684 124.203 104.719 123.867 104.785 123.539C104.852 123.207 104.949 122.887 105.078 122.574C105.207 122.266 105.363 121.969 105.551 121.691C105.738 121.41 105.953 121.152 106.191 120.914C106.43 120.676 106.691 120.461 106.969 120.273C107.25 120.086 107.547 119.93 107.859 119.801C108.172 119.672 108.492 119.574 108.824 119.508C109.156 119.445 109.488 119.41 109.828 119.41C110.164 119.41 110.5 119.445 110.832 119.508C111.16 119.574 111.484 119.672 111.797 119.801C112.105 119.93 112.402 120.086 112.684 120.273C112.965 120.461 113.227 120.676 113.465 120.914C113.703 121.152 113.914 121.41 114.102 121.691C114.289 121.969 114.449 122.266 114.578 122.574C114.707 122.887 114.805 123.207 114.871 123.539C114.937 123.867 114.969 124.203 114.969 124.539Z" fill="#CA4727"/>
<path d="M72.8477 125.496H68.1719C67.9727 125.496 67.8047 125.43 67.668 125.289C67.5273 125.148 67.457 124.984 67.457 124.785V120.121C67.457 119.926 67.3867 119.758 67.25 119.617C67.1094 119.48 66.9414 119.41 66.7422 119.41H61.4297C61.2344 119.41 61.0664 119.48 60.9258 119.617C60.7852 119.758 60.7148 119.926 60.7148 120.121V124.785C60.7148 124.984 60.6484 125.148 60.5078 125.289C60.3672 125.43 60.1992 125.496 60.0039 125.496H55.3242C55.1289 125.496 54.9609 125.566 54.8203 125.707C54.6797 125.844 54.6094 126.012 54.6094 126.211V131.508C54.6094 131.703 54.6797 131.871 54.8203 132.012C54.9609 132.148 55.1289 132.219 55.3242 132.219H60.0039C60.1992 132.219 60.3672 132.289 60.5078 132.426C60.6484 132.566 60.7148 132.734 60.7148 132.93V137.594C60.7148 137.793 60.7852 137.961 60.9258 138.098C61.0664 138.238 61.2344 138.309 61.4297 138.309H66.7422C66.9414 138.309 67.1094 138.238 67.25 138.098C67.3867 137.961 67.457 137.793 67.457 137.594V132.934C67.457 132.734 67.5273 132.566 67.668 132.43C67.8047 132.289 67.9727 132.219 68.1719 132.219H72.8477C73.0469 132.219 73.2148 132.148 73.3555 132.012C73.4922 131.871 73.5625 131.703 73.5625 131.508V126.211C73.5625 126.012 73.4922 125.844 73.3555 125.707C73.2148 125.566 73.0469 125.496 72.8477 125.496Z" fill="#CA4727"/>
<path d="M100.141 71.0547C100.141 72.2422 100.094 73.4219 99.9922 74.5859C99.8945 75.75 99.7461 76.8789 99.5508 77.9766C99.3555 79.0742 99.1133 80.1172 98.832 81.1055C98.5469 82.0898 98.2266 83.0039 97.8633 83.8438C97.5039 84.6836 97.1094 85.4336 96.6836 86.0938C96.2617 86.7539 95.8125 87.3125 95.3398 87.7656C94.8672 88.2188 94.3828 88.5625 93.8789 88.793C93.3789 89.0273 92.875 89.1406 92.3633 89.1406C91.8516 89.1406 91.3438 89.0273 90.8438 88.793C90.3438 88.5625 89.8555 88.2188 89.3867 87.7656C88.9141 87.3125 88.4648 86.7539 88.0391 86.0938C87.6133 85.4336 87.2227 84.6836 86.8594 83.8438C86.5 83.0039 86.1758 82.0898 85.8945 81.1055C85.6094 80.1172 85.3711 79.0742 85.1758 77.9766C84.9805 76.8789 84.832 75.75 84.7305 74.5859C84.6328 73.4219 84.582 72.2422 84.582 71.0547C84.582 69.8672 84.6328 68.6914 84.7305 67.5273C84.832 66.3633 84.9805 65.2344 85.1758 64.1367C85.3711 63.0391 85.6094 61.9961 85.8945 61.0078C86.1758 60.0234 86.5 59.1094 86.8594 58.2695C87.2227 57.4297 87.6133 56.6797 88.0391 56.0195C88.4648 55.3594 88.9141 54.8008 89.3867 54.3477C89.8555 53.8945 90.3438 53.5508 90.8438 53.3203C91.3438 53.0859 91.8516 52.9727 92.3633 52.9727C92.875 52.9727 93.3789 53.0859 93.8789 53.3203C94.3828 53.5508 94.8672 53.8945 95.3398 54.3477C95.8125 54.8008 96.2617 55.3594 96.6836 56.0195C97.1094 56.6797 97.5039 57.4297 97.8633 58.2695C98.2266 59.1094 98.5469 60.0234 98.832 61.0078C99.1133 61.9961 99.3555 63.0391 99.5508 64.1367C99.7461 65.2344 99.8945 66.3633 99.9922 67.5273C100.094 68.6914 100.141 69.8672 100.141 71.0547Z" fill="white"/>
<path d="M95.4258 76.5117L91.4766 74.1328C90.9531 76.7188 90.6992 79.3281 90.7109 81.9648C90.7031 84.3203 90.9063 86.6563 91.3164 88.9727C91.6563 89.082 92.0039 89.1367 92.3633 89.1406C96.6602 89.1406 100.141 81.043 100.141 71.0547C100.148 68.7031 99.9492 66.3672 99.5391 64.0469C99.1953 63.9375 98.8477 63.8828 98.4922 63.8789C96.5703 63.8789 94.8125 65.5 93.457 68.1797L95.4258 76.5117Z" fill="#3F120F"/>
<path d="M92.3633 89.6602C87.707 89.6602 84.0625 81.4883 84.0625 71.0547C84.0625 60.625 87.707 52.4531 92.3633 52.4531C97.0156 52.4531 100.664 60.625 100.664 71.0586C100.664 81.4922 97.0156 89.6602 92.3633 89.6602ZM92.3633 53.4883C88.4258 53.4883 85.1016 61.5352 85.1016 71.0547C85.1016 80.5781 88.4297 88.625 92.3633 88.625C96.2969 88.625 99.625 80.5781 99.625 71.0586C99.625 61.5352 96.2969 53.4883 92.3633 53.4883Z" fill="#3F120F"/>
<path d="M84.582 71.0547C84.582 72.2422 84.5312 73.4219 84.4336 74.5859C84.332 75.75 84.1836 76.8789 83.9883 77.9766C83.793 79.0742 83.5547 80.1172 83.2695 81.1055C82.9883 82.0898 82.6641 83.0039 82.3047 83.8438C81.9414 84.6836 81.5508 85.4336 81.125 86.0938C80.6992 86.7539 80.25 87.3125 79.7773 87.7656C79.3086 88.2188 78.8203 88.5625 78.3203 88.793C77.8203 89.0273 77.3125 89.1406 76.8008 89.1406C76.2891 89.1406 75.7852 89.0273 75.2852 88.793C74.7813 88.5625 74.2969 88.2188 73.8242 87.7656C73.3516 87.3125 72.9023 86.7539 72.4805 86.0938C72.0547 85.4336 71.6602 84.6836 71.3008 83.8438C70.9375 83.0039 70.6172 82.0898 70.332 81.1055C70.0508 80.1172 69.8086 79.0742 69.6133 77.9766C69.418 76.8789 69.2695 75.75 69.1719 74.5859C69.0703 73.4219 69.0234 72.2422 69.0234 71.0547C69.0234 69.8672 69.0703 68.6914 69.1719 67.5273C69.2695 66.3633 69.418 65.2344 69.6133 64.1367C69.8086 63.0391 70.0508 61.9961 70.332 61.0078C70.6172 60.0234 70.9375 59.1094 71.3008 58.2695C71.6602 57.4297 72.0547 56.6797 72.4805 56.0195C72.9023 55.3594 73.3516 54.8008 73.8242 54.3477C74.2969 53.8945 74.7813 53.5508 75.2852 53.3203C75.7852 53.0859 76.2891 52.9727 76.8008 52.9727C77.3125 52.9727 77.8203 53.0859 78.3203 53.3203C78.8203 53.5508 79.3086 53.8945 79.7773 54.3477C80.25 54.8008 80.6992 55.3594 81.125 56.0195C81.5508 56.6797 81.9414 57.4297 82.3047 58.2695C82.6641 59.1094 82.9883 60.0234 83.2695 61.0078C83.5547 61.9961 83.793 63.0391 83.9883 64.1367C84.1836 65.2344 84.332 66.3633 84.4336 67.5273C84.5312 68.6914 84.582 69.8672 84.582 71.0547Z" fill="white"/>
<path d="M79.8672 76.5117L75.9141 74.1328C75.3945 76.7188 75.1406 79.3281 75.1484 81.9648C75.1445 84.3203 75.3438 86.6563 75.7539 88.9727C76.0977 89.082 76.4453 89.1406 76.8047 89.1406C81.0977 89.1406 84.582 81.043 84.582 71.0547C84.5899 68.7031 84.3867 66.3672 83.9766 64.0469C83.6367 63.9375 83.2891 63.8828 82.9297 63.8789C81.0117 63.8789 79.2539 65.5 77.8984 68.1797L79.8672 76.5117Z" fill="#3F120F"/>
<path d="M76.8008 89.6602C72.1484 89.6602 68.5 81.4883 68.5 71.0547C68.5 60.625 72.1484 52.4531 76.8008 52.4531C81.457 52.4531 85.1016 60.625 85.1016 71.0586C85.1016 81.4922 81.457 89.6602 76.8008 89.6602ZM76.8008 53.4883C72.8672 53.4883 69.543 61.5352 69.543 71.0547C69.543 80.5781 72.8672 88.625 76.8008 88.625C80.7383 88.625 84.0625 80.5781 84.0625 71.0586C84.0625 61.5352 80.7383 53.4883 76.8008 53.4883Z" fill="#3F120F"/>
<path d="M84.9219 100.492H84.582C74.3711 100.492 70.5234 91.832 69.3086 87.9453C68.9648 88.707 68.5234 89.1367 67.9805 89.25C66.9023 89.4727 66.0586 88.293 65.9648 88.1562C65.8867 88.0391 65.8594 87.9102 65.8867 87.7695C65.9102 87.6289 65.9844 87.5156 66.1016 87.4375C66.2227 87.3555 66.3516 87.3281 66.4922 87.3555C66.6328 87.3828 66.7422 87.4531 66.8242 87.5703C66.9883 87.8047 67.4531 88.3008 67.7734 88.2344C67.8789 88.2109 68.4258 87.9961 68.832 85.9102C68.8555 85.7891 68.9141 85.6875 69.0117 85.6094C69.1094 85.5312 69.2188 85.4922 69.3438 85.4922H69.3477C69.4727 85.4922 69.582 85.5352 69.6797 85.6133C69.7734 85.6953 69.832 85.7969 69.8555 85.9219C70.3711 88.3555 71.293 90.6289 72.6133 92.7422C75.4414 97.1953 79.4688 99.457 84.582 99.457H84.9219C97.1562 99.457 99.625 86.0547 99.6484 85.9219C99.6719 85.7969 99.7305 85.6953 99.8242 85.6133C99.9219 85.5352 100.031 85.4922 100.156 85.4922C100.281 85.4922 100.391 85.5312 100.488 85.6094C100.586 85.6875 100.648 85.7891 100.672 85.9102C101.078 87.9961 101.629 88.2109 101.734 88.2344C102.039 88.3008 102.5 87.8359 102.68 87.5703C102.762 87.4531 102.871 87.3828 103.012 87.3555C103.152 87.3281 103.281 87.3555 103.402 87.4375C103.52 87.5156 103.594 87.6289 103.621 87.7695C103.645 87.9102 103.621 88.0391 103.539 88.1562C103.445 88.293 102.598 89.4688 101.523 89.25C100.98 89.1367 100.539 88.707 100.195 87.9453C98.9844 91.832 95.1328 100.492 84.9219 100.492Z" fill="#3F120F"/>
<path d="M83.793 84.7188L79.8203 85.6211C79.6289 85.6641 79.4609 85.75 79.3125 85.8789C79.1641 86.0039 79.0586 86.1602 78.9883 86.3438C78.918 86.5273 78.8984 86.7148 78.9258 86.9062C78.9492 87.1016 79.0195 87.2734 79.1367 87.4336L81.2773 90.375L83.793 84.7188Z" fill="#FFE26F"/>
<path d="M81.2773 90.8945C81.0977 90.8945 80.957 90.8203 80.8555 90.6797L78.7148 87.7344C78.6328 87.625 78.5664 87.5039 78.5156 87.375C78.4648 87.2461 78.4297 87.1133 78.4102 86.9766C78.3906 86.8359 78.3906 86.6992 78.4062 86.5625C78.4219 86.4258 78.4531 86.2891 78.5039 86.1602C78.5508 86.0312 78.6172 85.9102 78.6953 85.793C78.7734 85.6797 78.8672 85.5781 78.9727 85.4883C79.0742 85.3945 79.1914 85.3203 79.3125 85.2578C79.4375 85.1914 79.5664 85.1445 79.7031 85.1133L83.6758 84.2109C83.8164 84.1797 83.9453 84.2031 84.0703 84.2773C84.1914 84.3555 84.2656 84.4609 84.2969 84.6016C84.332 84.7422 84.3086 84.8711 84.2305 84.9922C84.1562 85.1133 84.0469 85.1914 83.9062 85.2227L79.9336 86.125C79.8281 86.1484 79.7344 86.1953 79.6562 86.2695C79.5742 86.3398 79.5156 86.4258 79.4766 86.5234C79.4375 86.625 79.4258 86.7305 79.4414 86.8359C79.4531 86.9453 79.4922 87.0391 79.5586 87.1289L81.6953 90.0703C81.8203 90.2422 81.8359 90.4219 81.7383 90.6094C81.6445 90.7969 81.4883 90.8945 81.2773 90.8945Z" fill="#3F120F"/>
<path d="M111.223 180.594C111.223 180.719 111.18 180.84 111.094 180.965C111.008 181.086 110.879 181.207 110.707 181.328C110.539 181.449 110.324 181.566 110.07 181.684C109.813 181.801 109.52 181.918 109.184 182.031C108.848 182.145 108.473 182.254 108.059 182.363C107.645 182.473 107.191 182.578 106.703 182.68C106.215 182.781 105.691 182.879 105.137 182.973C104.578 183.07 103.988 183.16 103.367 183.246C102.746 183.332 102.098 183.418 101.418 183.492C100.738 183.57 100.035 183.645 99.3047 183.715C98.5742 183.781 97.8203 183.844 97.0469 183.902C96.2695 183.961 95.4766 184.012 94.668 184.059C93.8555 184.105 93.0273 184.148 92.1875 184.184C91.3477 184.219 90.4961 184.25 89.6328 184.273C88.7734 184.297 87.9062 184.316 87.0312 184.328C86.1562 184.34 85.2812 184.344 84.4023 184.344C83.5234 184.344 82.6484 184.34 81.7734 184.328C80.8984 184.316 80.0312 184.297 79.168 184.273C78.3086 184.25 77.457 184.219 76.6172 184.184C75.7734 184.148 74.9492 184.105 74.1367 184.059C73.3242 184.012 72.5313 183.961 71.7578 183.902C70.9844 183.844 70.2305 183.781 69.5 183.715C68.7695 183.645 68.0664 183.57 67.3867 183.492C66.707 183.418 66.0586 183.332 65.4375 183.246C64.8164 183.16 64.2266 183.07 63.668 182.973C63.1094 182.879 62.5898 182.781 62.1016 182.68C61.6133 182.578 61.1602 182.473 60.7461 182.363C60.332 182.254 59.957 182.145 59.6211 182.031C59.2852 181.918 58.9883 181.801 58.7344 181.684C58.4805 181.566 58.2656 181.449 58.0938 181.328C57.9219 181.207 57.793 181.086 57.707 180.965C57.6211 180.84 57.5781 180.719 57.5781 180.594C57.5781 180.473 57.6211 180.352 57.707 180.227C57.793 180.105 57.9219 179.984 58.0938 179.863C58.2656 179.742 58.4805 179.625 58.7344 179.508C58.9883 179.391 59.2852 179.273 59.6211 179.16C59.957 179.047 60.332 178.938 60.7461 178.828C61.1602 178.719 61.6133 178.613 62.1016 178.512C62.5898 178.41 63.1094 178.312 63.668 178.215C64.2266 178.121 64.8164 178.031 65.4375 177.945C66.0586 177.855 66.707 177.773 67.3867 177.695C68.0664 177.617 68.7695 177.547 69.5 177.477C70.2305 177.41 70.9844 177.348 71.7578 177.289C72.5313 177.23 73.3242 177.18 74.1367 177.129C74.9492 177.082 75.7734 177.043 76.6172 177.008C77.457 176.973 78.3086 176.941 79.168 176.918C80.0312 176.895 80.8984 176.875 81.7734 176.863C82.6484 176.852 83.5234 176.844 84.4023 176.844C85.2812 176.844 86.1562 176.852 87.0312 176.863C87.9062 176.875 88.7734 176.895 89.6328 176.918C90.4961 176.941 91.3477 176.973 92.1875 177.008C93.0273 177.043 93.8555 177.082 94.668 177.129C95.4766 177.18 96.2695 177.23 97.0469 177.289C97.8203 177.348 98.5742 177.41 99.3047 177.477C100.035 177.547 100.738 177.617 101.418 177.695C102.098 177.773 102.746 177.855 103.367 177.945C103.988 178.031 104.578 178.121 105.137 178.215C105.691 178.312 106.215 178.41 106.703 178.512C107.191 178.613 107.645 178.719 108.059 178.828C108.473 178.938 108.848 179.047 109.184 179.16C109.52 179.273 109.813 179.391 110.07 179.508C110.324 179.625 110.539 179.742 110.707 179.863C110.879 179.984 111.008 180.105 111.094 180.227C111.18 180.352 111.223 180.473 111.223 180.594Z" fill="#3F120F"/>
<path d="M38.79 30.168C37.5393 30.168 36.4006 29.8973 35.374 29.356C34.366 28.796 33.5633 27.984 32.966 26.92C32.3686 25.8373 32.07 24.5493 32.07 23.056C32.07 21.9173 32.266 20.648 32.658 19.248C33.5166 16.2613 34.8606 14.152 36.69 12.92C38.538 11.688 40.5073 11.072 42.598 11.072C44.502 11.072 46.2193 11.7627 47.75 13.144L48.59 12.332C49.0566 11.94 49.458 11.6693 49.794 11.52C50.13 11.3707 50.522 11.296 50.97 11.296C51.4553 11.296 51.8473 11.4173 52.146 11.66C52.4446 11.884 52.594 12.192 52.594 12.584C52.594 12.7333 52.566 12.9107 52.51 13.116L51.502 16.644C51.3153 17.2413 51.0913 17.6613 50.83 17.904C50.5873 18.1467 50.2513 18.268 49.822 18.268C49.374 18.268 48.9726 18.156 48.618 17.932C48.282 17.708 47.89 17.3067 47.442 16.728C46.8446 15.944 46.3126 15.3933 45.846 15.076C45.398 14.74 44.9033 14.572 44.362 14.572C43.522 14.572 42.7193 15.0013 41.954 15.86C41.2073 16.7 40.554 18.1093 39.994 20.088C39.6393 21.376 39.462 22.4867 39.462 23.42C39.462 24.4093 39.6486 25.1653 40.022 25.688C40.414 26.192 40.9553 26.444 41.646 26.444C42.2433 26.444 42.7006 26.304 43.018 26.024C43.354 25.744 43.6153 25.2587 43.802 24.568L43.998 23.868C44.0913 23.4947 44.138 23.2427 44.138 23.112C44.138 22.888 44.082 22.7293 43.97 22.636C43.8766 22.5427 43.7086 22.44 43.466 22.328L42.486 21.964C42.0566 21.796 41.842 21.488 41.842 21.04C41.842 20.9093 41.8513 20.8067 41.87 20.732C41.9446 20.4893 42.0753 20.312 42.262 20.2C42.4673 20.088 42.7753 20.032 43.186 20.032L51.642 20.06C52.258 20.06 52.566 20.256 52.566 20.648C52.566 20.7227 52.5473 20.8347 52.51 20.984C52.4353 21.264 52.314 21.488 52.146 21.656C51.978 21.824 51.7353 21.992 51.418 22.16L50.69 22.58C50.5033 22.692 50.3633 22.804 50.27 22.916C50.1766 23.0093 50.1113 23.1307 50.074 23.28L48.59 28.46C48.4033 29.076 48.1886 29.4867 47.946 29.692C47.722 29.8973 47.442 30 47.106 30H45.93C45.482 30 45.1086 29.9067 44.81 29.72C44.53 29.5333 44.2966 29.1693 44.11 28.628L43.83 27.816C42.486 29.384 40.806 30.168 38.79 30.168ZM67.4068 26.696C67.3322 26.9387 67.2948 27.1813 67.2948 27.424C67.2948 27.6293 67.3228 27.8067 67.3788 27.956C67.4348 28.0867 67.4908 28.1987 67.5468 28.292C67.6215 28.3667 67.6682 28.4227 67.6868 28.46C67.8735 28.6467 67.9668 28.8333 67.9668 29.02C67.9668 29.0573 67.9482 29.1507 67.9108 29.3C67.8362 29.5613 67.6682 29.748 67.4068 29.86C67.1642 29.9533 66.7815 30 66.2588 30H59.6228C59.2308 30 58.9228 29.9347 58.6988 29.804C58.4935 29.6733 58.3908 29.496 58.3908 29.272C58.3908 29.16 58.4188 29.0387 58.4748 28.908C58.5308 28.7587 58.6055 28.6467 58.6988 28.572C58.8108 28.4787 58.9602 28.376 59.1468 28.264C59.4455 28.096 59.6882 27.9093 59.8748 27.704C60.0615 27.4987 60.2202 27.1627 60.3508 26.696L61.0788 24.288H56.7108L55.9548 25.884C55.6375 26.5747 55.4788 27.116 55.4788 27.508C55.4788 27.732 55.5162 27.9187 55.5908 28.068C55.6655 28.1987 55.7775 28.3387 55.9268 28.488C56.0575 28.6373 56.1415 28.768 56.1788 28.88C56.2348 28.9733 56.2442 29.104 56.2068 29.272C56.1322 29.552 55.9735 29.748 55.7308 29.86C55.5068 29.9533 55.1428 30 54.6388 30H50.4668C50.0375 30 49.7108 29.9253 49.4868 29.776C49.2628 29.608 49.1508 29.3933 49.1508 29.132C49.1508 28.8333 49.2628 28.6 49.4868 28.432C49.6922 28.2453 50.0095 28.0493 50.4388 27.844C50.9988 27.564 51.4468 27.2933 51.7828 27.032C52.1188 26.752 52.4082 26.3693 52.6508 25.884L57.6348 15.552C58.4002 13.9467 59.2962 12.7893 60.3228 12.08C61.3682 11.352 62.7402 10.988 64.4388 10.988C66.3428 10.988 67.8175 11.38 68.8628 12.164C69.9082 12.9293 70.4308 14.0027 70.4308 15.384C70.4308 15.9627 70.3375 16.56 70.1508 17.176L67.4068 26.696ZM61.9188 21.488L63.4028 16.56C63.4775 16.336 63.5148 16.1027 63.5148 15.86C63.5148 15.5053 63.4122 15.244 63.2068 15.076C63.0202 14.8893 62.7495 14.796 62.3948 14.796C61.9468 14.796 61.5642 14.9267 61.2468 15.188C60.9295 15.4493 60.6122 15.916 60.2948 16.588L57.9988 21.488H61.9188ZM99.6482 11.352C100.04 11.352 100.339 11.4173 100.544 11.548C100.768 11.66 100.88 11.828 100.88 12.052C100.88 12.1453 100.852 12.2667 100.796 12.416C100.74 12.584 100.656 12.7147 100.544 12.808C100.451 12.8827 100.302 12.9853 100.096 13.116C99.7975 13.284 99.5548 13.4707 99.3682 13.676C99.2002 13.8813 99.0508 14.1987 98.9202 14.628L95.5042 26.668C95.4295 26.9107 95.3922 27.144 95.3922 27.368C95.3922 27.5733 95.4202 27.7507 95.4762 27.9C95.5508 28.0307 95.6442 28.1893 95.7562 28.376C95.8308 28.4693 95.8962 28.572 95.9522 28.684C96.0082 28.7773 96.0362 28.88 96.0362 28.992C96.0362 29.0293 96.0175 29.1227 95.9802 29.272C95.9055 29.5147 95.7282 29.692 95.4482 29.804C95.1868 29.916 94.8042 29.972 94.3002 29.972H87.7202C87.3282 29.972 87.0202 29.9067 86.7962 29.776C86.5908 29.6453 86.4882 29.468 86.4882 29.244C86.4882 29.132 86.5162 29.0107 86.5722 28.88C86.6282 28.7493 86.7028 28.6373 86.7962 28.544C86.9082 28.432 87.0015 28.3573 87.0762 28.32C87.1695 28.264 87.2348 28.2173 87.2722 28.18C87.5708 28.012 87.8135 27.8253 88.0002 27.62C88.1868 27.4147 88.3455 27.0973 88.4762 26.668L90.6042 19.108L83.3522 28.096C82.7548 28.824 82.2695 29.328 81.8962 29.608C81.5415 29.8693 81.1308 30 80.6642 30C80.2162 30 79.8615 29.86 79.6002 29.58C79.3575 29.2813 79.1335 28.7867 78.9282 28.096L76.2962 19.444L74.2242 26.696C74.1495 26.9387 74.1122 27.172 74.1122 27.396C74.1122 27.62 74.1402 27.8067 74.1962 27.956C74.2708 28.1053 74.3735 28.264 74.5042 28.432C74.6722 28.6747 74.7562 28.8707 74.7562 29.02C74.7562 29.0573 74.7375 29.1507 74.7002 29.3C74.6255 29.5613 74.4575 29.748 74.1962 29.86C73.9348 29.9533 73.5428 30 73.0202 30H70.6962C70.3042 30 69.9962 29.9347 69.7722 29.804C69.5668 29.6733 69.4642 29.496 69.4642 29.272C69.4642 29.16 69.4922 29.0387 69.5482 28.908C69.6228 28.7027 69.7442 28.544 69.9122 28.432C70.0802 28.32 70.1828 28.2547 70.2202 28.236C70.5188 28.0493 70.7615 27.8627 70.9482 27.676C71.1348 27.4707 71.2935 27.144 71.4242 26.696L74.8402 14.6L74.3922 13.116C74.2988 12.836 74.2522 12.5653 74.2522 12.304C74.2522 11.968 74.3548 11.7253 74.5602 11.576C74.7842 11.4267 75.1202 11.352 75.5682 11.352H79.9082C80.4682 11.352 80.8788 11.4733 81.1402 11.716C81.4202 11.9587 81.6442 12.3787 81.8122 12.976L84.6122 22.272L92.2002 12.836C92.6855 12.2387 93.1615 11.8467 93.6282 11.66C94.0948 11.4547 94.7108 11.352 95.4762 11.352H99.6482ZM117.692 11.352C118.383 11.352 118.915 11.5013 119.288 11.8C119.68 12.0987 119.876 12.5093 119.876 13.032C119.876 13.2933 119.839 13.5453 119.764 13.788L119.036 16.392C118.906 16.896 118.71 17.2507 118.448 17.456C118.206 17.6427 117.851 17.736 117.384 17.736C116.936 17.736 116.582 17.6427 116.32 17.456C116.078 17.2507 115.891 16.924 115.76 16.476L115.312 14.88C115.219 14.544 115.107 14.32 114.976 14.208C114.846 14.096 114.594 14.04 114.22 14.04H111.28L109.88 19.024H111.112C111.243 19.024 111.42 18.9307 111.644 18.744L112.596 17.904C112.876 17.6613 113.119 17.484 113.324 17.372C113.53 17.26 113.782 17.204 114.08 17.204C114.416 17.204 114.687 17.2973 114.892 17.484C115.116 17.652 115.228 17.876 115.228 18.156C115.228 18.2307 115.21 18.3427 115.172 18.492L114.024 22.384C113.912 22.7947 113.716 23.1027 113.436 23.308C113.175 23.4947 112.886 23.588 112.568 23.588C112.046 23.588 111.654 23.3173 111.392 22.776L110.916 21.796C110.786 21.516 110.58 21.376 110.3 21.376H109.208L107.556 27.312H110.02C110.375 27.312 110.683 27.2467 110.944 27.116C111.224 26.9667 111.523 26.7147 111.84 26.36L113.52 24.512C113.819 24.1947 114.099 23.9707 114.36 23.84C114.64 23.6907 114.976 23.616 115.368 23.616C115.779 23.616 116.115 23.7093 116.376 23.896C116.638 24.0827 116.768 24.3627 116.768 24.736C116.768 24.8853 116.74 25.0627 116.684 25.268L115.872 28.096C115.667 28.8053 115.368 29.3 114.976 29.58C114.584 29.86 114.015 30 113.268 30H99.9122C99.5202 30 99.2215 29.9347 99.0162 29.804C98.7922 29.6733 98.6802 29.496 98.6802 29.272C98.6802 29.16 98.7082 29.0387 98.7642 28.908C98.8389 28.7027 98.9602 28.544 99.1282 28.432C99.2962 28.32 99.3989 28.2547 99.4362 28.236C99.7349 28.0493 99.9775 27.8627 100.164 27.676C100.351 27.4707 100.51 27.144 100.64 26.696L104.084 14.628C104.159 14.3853 104.196 14.1613 104.196 13.956C104.196 13.732 104.159 13.5453 104.084 13.396C104.028 13.2467 103.935 13.088 103.804 12.92C103.636 12.6773 103.552 12.4813 103.552 12.332C103.552 12.276 103.571 12.1733 103.608 12.024C103.683 11.7813 103.851 11.6133 104.112 11.52C104.374 11.408 104.756 11.352 105.26 11.352H117.692ZM128.665 11.184C129.711 11.184 130.672 11.3147 131.549 11.576C132.445 11.8187 133.351 12.2107 134.265 12.752L134.909 12.22C135.357 11.8653 135.721 11.6227 136.001 11.492C136.3 11.3613 136.636 11.296 137.009 11.296C137.457 11.296 137.812 11.3987 138.073 11.604C138.335 11.7907 138.465 12.0707 138.465 12.444C138.465 12.5933 138.437 12.752 138.381 12.92L137.205 16.784C137.075 17.232 136.907 17.5493 136.701 17.736C136.515 17.9227 136.225 18.016 135.833 18.016C135.423 18.016 135.059 17.8947 134.741 17.652C134.443 17.3907 133.967 16.868 133.313 16.084C132.66 15.3373 132.063 14.8147 131.521 14.516C130.999 14.1987 130.457 14.04 129.897 14.04C129.487 14.04 129.141 14.18 128.861 14.46C128.581 14.7213 128.441 15.048 128.441 15.44C128.441 15.888 128.665 16.308 129.113 16.7C129.561 17.0733 130.261 17.5493 131.213 18.128C132.184 18.7067 132.987 19.2293 133.621 19.696C134.256 20.1627 134.797 20.7413 135.245 21.432C135.693 22.1227 135.917 22.916 135.917 23.812C135.917 24.3907 135.824 24.9693 135.637 25.548C135.189 27.0413 134.321 28.18 133.033 28.964C131.745 29.7293 130.243 30.112 128.525 30.112C127.237 30.112 126.155 29.9627 125.277 29.664C124.4 29.3653 123.504 28.8613 122.589 28.152L121.581 28.992C121.115 29.384 120.732 29.6547 120.433 29.804C120.135 29.9347 119.799 30 119.425 30C118.996 30 118.651 29.8973 118.389 29.692C118.147 29.4867 118.025 29.2067 118.025 28.852C118.025 28.6653 118.063 28.4693 118.137 28.264L119.509 24.092C119.659 23.6067 119.864 23.2613 120.125 23.056C120.387 22.8507 120.723 22.748 121.133 22.748C121.563 22.748 121.945 22.8973 122.281 23.196C122.636 23.4947 123.093 24.036 123.653 24.82C124.251 25.6787 124.801 26.276 125.305 26.612C125.828 26.948 126.444 27.116 127.153 27.116C127.657 27.116 128.04 27.0413 128.301 26.892C128.581 26.724 128.777 26.4627 128.889 26.108C128.927 26.0147 128.945 25.8747 128.945 25.688C128.945 25.24 128.731 24.8293 128.301 24.456C127.872 24.0827 127.209 23.6347 126.313 23.112C125.361 22.5333 124.587 22.02 123.989 21.572C123.392 21.1053 122.869 20.5267 122.421 19.836C121.992 19.1453 121.777 18.3333 121.777 17.4C121.777 16.7467 121.88 16.1027 122.085 15.468C122.477 14.18 123.28 13.144 124.493 12.36C125.707 11.576 127.097 11.184 128.665 11.184Z" fill="white"/>
<path d="M64.5273 36.67C64.6807 36.67 64.794 36.6767 64.8673 36.69C64.9473 36.6967 65.034 36.7267 65.1273 36.78C65.2273 36.8333 65.2973 36.9233 65.3373 37.05C65.3773 37.1767 65.3973 37.3467 65.3973 37.56C65.3973 37.7733 65.3773 37.9433 65.3373 38.07C65.2973 38.1967 65.2273 38.2867 65.1273 38.34C65.0273 38.3867 64.9373 38.4167 64.8573 38.43C64.784 38.4367 64.6673 38.44 64.5073 38.44H61.4473V39.45H63.4173C63.5773 39.45 63.694 39.4567 63.7673 39.47C63.8473 39.4767 63.9373 39.5067 64.0373 39.56C64.2107 39.66 64.2973 39.9233 64.2973 40.35C64.2973 40.8167 64.1707 41.0933 63.9173 41.18C63.8107 41.2133 63.6407 41.23 63.4073 41.23H61.4473V43.12C61.4473 43.28 61.4407 43.3967 61.4273 43.47C61.4207 43.5433 61.3907 43.63 61.3373 43.73C61.244 43.91 60.984 44 60.5573 44C60.0907 44 59.8173 43.8733 59.7373 43.62C59.6973 43.5133 59.6773 43.3433 59.6773 43.11V37.55C59.6773 37.21 59.7407 36.98 59.8673 36.86C59.994 36.7333 60.234 36.67 60.5873 36.67H64.5273ZM71.6545 42.76C71.7545 43 71.8045 43.1733 71.8045 43.28C71.8045 43.5333 71.5979 43.7467 71.1845 43.92C70.9712 44.0133 70.7979 44.06 70.6645 44.06C70.5379 44.06 70.4312 44.03 70.3445 43.97C70.2645 43.9033 70.2045 43.8367 70.1645 43.77C70.0979 43.6433 69.8379 43.04 69.3845 41.96L69.0745 41.98H67.8145V43.11C67.8145 43.2633 67.8079 43.38 67.7945 43.46C67.7879 43.5333 67.7579 43.62 67.7045 43.72C67.6112 43.9 67.3512 43.99 66.9245 43.99C66.4579 43.99 66.1845 43.8667 66.1045 43.62C66.0645 43.5067 66.0445 43.3333 66.0445 43.1V37.55C66.0445 37.3967 66.0479 37.2833 66.0545 37.21C66.0679 37.13 66.1012 37.04 66.1545 36.94C66.2479 36.76 66.5079 36.67 66.9345 36.67H69.0945C69.6812 36.67 70.2512 36.8833 70.8045 37.31C71.0712 37.5167 71.2912 37.7967 71.4645 38.15C71.6379 38.5033 71.7245 38.8967 71.7245 39.33C71.7245 40.0833 71.4745 40.7033 70.9745 41.19C71.1212 41.5433 71.3479 42.0667 71.6545 42.76ZM67.8145 40.21H69.0945C69.2879 40.21 69.4812 40.1367 69.6745 39.99C69.8679 39.8433 69.9645 39.6233 69.9645 39.33C69.9645 39.0367 69.8679 38.8167 69.6745 38.67C69.4812 38.5167 69.2812 38.44 69.0745 38.44H67.8145V40.21ZM76.5831 37.19L79.2831 42.77C79.3965 42.9967 79.4531 43.1667 79.4531 43.28C79.4531 43.52 79.2598 43.7367 78.8731 43.93C78.6465 44.0433 78.4665 44.1 78.3331 44.1C78.2065 44.1 78.0998 44.07 78.0131 44.01C77.9331 43.95 77.8731 43.8867 77.8331 43.82C77.7998 43.7533 77.7498 43.6533 77.6831 43.52L77.1631 42.44H74.3931L73.8731 43.52C73.8065 43.6533 73.7531 43.75 73.7131 43.81C73.6798 43.87 73.6198 43.9333 73.5331 44C73.4531 44.06 73.3465 44.09 73.2131 44.09C73.0865 44.09 72.9098 44.0333 72.6831 43.92C72.2965 43.7333 72.1031 43.52 72.1031 43.28C72.1031 43.1667 72.1598 42.9967 72.2731 42.77L74.9731 37.18C75.0465 37.0267 75.1565 36.9033 75.3031 36.81C75.4565 36.7167 75.6165 36.67 75.7831 36.67C76.1431 36.67 76.4098 36.8433 76.5831 37.19ZM75.7731 39.59L75.1131 40.96H76.4431L75.7731 39.59ZM84.0816 42.08L84.2616 41.95C84.4882 41.8167 84.6482 41.75 84.7416 41.75C84.9482 41.75 85.1716 41.9367 85.4116 42.31C85.5582 42.5433 85.6316 42.73 85.6316 42.87C85.6316 43.01 85.5849 43.1267 85.4916 43.22C85.4049 43.3133 85.3016 43.3967 85.1816 43.47C85.0616 43.5433 84.9449 43.6133 84.8316 43.68C84.7249 43.7467 84.5016 43.8333 84.1616 43.94C83.8216 44.0467 83.4916 44.1 83.1716 44.1C82.8582 44.1 82.5382 44.06 82.2116 43.98C81.8916 43.8933 81.5582 43.7533 81.2116 43.56C80.8716 43.36 80.5649 43.12 80.2916 42.84C80.0182 42.5533 79.7916 42.19 79.6116 41.75C79.4382 41.3033 79.3516 40.82 79.3516 40.3C79.3516 39.78 79.4382 39.31 79.6116 38.89C79.7849 38.4633 80.0049 38.1133 80.2716 37.84C80.5449 37.56 80.8549 37.3267 81.2016 37.14C81.8549 36.78 82.5116 36.6 83.1716 36.6C83.4849 36.6 83.8016 36.65 84.1216 36.75C84.4482 36.8433 84.6949 36.94 84.8616 37.04L85.1016 37.18C85.2216 37.2533 85.3149 37.3133 85.3816 37.36C85.5549 37.5 85.6416 37.66 85.6416 37.84C85.6416 38.0133 85.5716 38.1967 85.4316 38.39C85.1716 38.75 84.9382 38.93 84.7316 38.93C84.6116 38.93 84.4416 38.8567 84.2216 38.71C83.9416 38.4833 83.5682 38.37 83.1016 38.37C82.6682 38.37 82.2416 38.52 81.8216 38.82C81.6216 38.9667 81.4549 39.1733 81.3216 39.44C81.1882 39.7067 81.1216 40.01 81.1216 40.35C81.1216 40.6833 81.1882 40.9833 81.3216 41.25C81.4549 41.5167 81.6249 41.7267 81.8316 41.88C82.2382 42.1733 82.6616 42.32 83.1016 42.32C83.3082 42.32 83.5016 42.2933 83.6816 42.24C83.8682 42.1867 84.0016 42.1333 84.0816 42.08ZM86.7687 36.66H92.3287C92.542 36.66 92.6987 36.6867 92.7987 36.74C92.8987 36.7867 92.9653 36.8633 92.9987 36.97C93.032 37.0767 93.0487 37.2167 93.0487 37.39C93.0487 37.5633 93.032 37.7033 92.9987 37.81C92.9653 37.91 92.9087 37.98 92.8287 38.02C92.7087 38.08 92.5387 38.11 92.3187 38.11H90.4087V43.14C90.4087 43.2933 90.402 43.4067 90.3887 43.48C90.382 43.5533 90.352 43.64 90.2987 43.74C90.252 43.8333 90.1653 43.9 90.0387 43.94C89.912 43.98 89.7453 44 89.5387 44C89.332 44 89.1653 43.98 89.0387 43.94C88.9187 43.9 88.832 43.8333 88.7787 43.74C88.732 43.64 88.702 43.5533 88.6887 43.48C88.682 43.4 88.6787 43.2833 88.6787 43.13V38.11H86.7587C86.5453 38.11 86.3887 38.0867 86.2887 38.04C86.1887 37.9867 86.122 37.9067 86.0887 37.8C86.0553 37.6933 86.0387 37.5533 86.0387 37.38C86.0387 37.2067 86.0553 37.07 86.0887 36.97C86.122 36.8633 86.1787 36.79 86.2587 36.75C86.3787 36.69 86.5487 36.66 86.7687 36.66ZM93.6031 37.55C93.6031 37.3967 93.6065 37.2833 93.6131 37.21C93.6265 37.13 93.6598 37.04 93.7131 36.94C93.8065 36.76 94.0665 36.67 94.4931 36.67C94.9598 36.67 95.2365 36.7933 95.3231 37.04C95.3565 37.1533 95.3731 37.3267 95.3731 37.56V43.12C95.3731 43.28 95.3665 43.3967 95.3531 43.47C95.3465 43.5433 95.3165 43.63 95.2631 43.73C95.1698 43.91 94.9098 44 94.4831 44C94.0165 44 93.7431 43.8733 93.6631 43.62C93.6231 43.5133 93.6031 43.3433 93.6031 43.11V37.55ZM99.6115 36.58C100.598 36.58 101.455 36.9367 102.181 37.65C102.908 38.3633 103.271 39.25 103.271 40.31C103.271 41.3633 102.925 42.2633 102.231 43.01C101.538 43.75 100.685 44.12 99.6715 44.12C98.6582 44.12 97.7948 43.7533 97.0815 43.02C96.3748 42.2867 96.0215 41.4133 96.0215 40.4C96.0215 39.8467 96.1215 39.33 96.3215 38.85C96.5215 38.3633 96.7882 37.9567 97.1215 37.63C97.4548 37.3033 97.8382 37.0467 98.2715 36.86C98.7048 36.6733 99.1515 36.58 99.6115 36.58ZM97.7915 40.35C97.7915 40.9433 97.9815 41.4267 98.3615 41.8C98.7482 42.1667 99.1782 42.35 99.6515 42.35C100.125 42.35 100.551 42.17 100.931 41.81C101.311 41.45 101.501 40.9667 101.501 40.36C101.501 39.7533 101.308 39.2667 100.921 38.9C100.541 38.5333 100.115 38.35 99.6415 38.35C99.1682 38.35 98.7415 38.5367 98.3615 38.91C97.9815 39.2767 97.7915 39.7567 97.7915 40.35ZM108.655 36.98C108.722 36.86 108.819 36.78 108.945 36.74C109.072 36.7 109.229 36.68 109.415 36.68C109.609 36.68 109.762 36.6967 109.875 36.73C109.995 36.7633 110.082 36.8033 110.135 36.85C110.195 36.8967 110.239 36.9667 110.265 37.06C110.305 37.1667 110.325 37.3367 110.325 37.57V43.12C110.325 43.28 110.319 43.3967 110.305 43.47C110.299 43.5433 110.269 43.63 110.215 43.73C110.122 43.91 109.862 44 109.435 44C109.175 44 108.995 43.98 108.895 43.94C108.795 43.9 108.712 43.8367 108.645 43.75C107.145 41.75 106.159 40.4433 105.685 39.83V43.12C105.685 43.28 105.679 43.3967 105.665 43.47C105.659 43.5433 105.629 43.63 105.575 43.73C105.482 43.91 105.222 44 104.795 44C104.382 44 104.129 43.91 104.035 43.73C103.982 43.63 103.949 43.54 103.935 43.46C103.929 43.38 103.925 43.2633 103.925 43.11V37.53C103.925 37.2767 103.955 37.0933 104.015 36.98C104.082 36.86 104.179 36.78 104.305 36.74C104.432 36.7 104.595 36.68 104.795 36.68C104.995 36.68 105.152 36.7 105.265 36.74C105.385 36.7733 105.469 36.8133 105.515 36.86C105.542 36.88 105.619 36.9667 105.745 37.12C107.152 39.0333 108.092 40.2967 108.565 40.91V37.53C108.565 37.2767 108.595 37.0933 108.655 36.98Z" fill="white"/>
</svg>
